<svg width="20" height="20" viewBox="0 0 20 20" fill="none" xmlns="http://www.w3.org/2000/svg">
<g clip-path="url(#clip0)">
<path d="M13.9375 0H6.66254C3.31482 0 0.600037 2.71479 0.600037 6.0625V13.3375C0.600037 16.6852 3.31482 19.4 6.66254 19.4H13.9375C17.2852 19.4 20 16.6852 20 13.3375V6.0625C20 2.71479 17.2852 0 13.9375 0ZM18.1813 13.3375C18.1813 15.6776 16.2777 17.5812 13.9375 17.5812H6.66254C4.32241 17.5812 2.41879 15.6776 2.41879 13.3375V6.0625C2.41879 3.72237 4.32241 1.81875 6.66254 1.81875H13.9375C16.2777 1.81875 18.1813 3.72237 18.1813 6.0625V13.3375Z" fill="white"/>
<path d="M10.3 4.84985C7.6216 4.84985 5.45001 7.02144 5.45001 9.69985C5.45001 12.3783 7.6216 14.5499 10.3 14.5499C12.9784 14.5499 15.15 12.3783 15.15 9.69985C15.15 7.02144 12.9784 4.84985 10.3 4.84985ZM10.3 12.7311C8.62919 12.7311 7.26876 11.3707 7.26876 9.69985C7.26876 8.02782 8.62919 6.6686 10.3 6.6686C11.9708 6.6686 13.3313 8.02782 13.3313 9.69985C13.3313 11.3707 11.9708 12.7311 10.3 12.7311Z" fill="white"/>
<path d="M15.5138 5.13261C15.8707 5.13261 16.1601 4.84327 16.1601 4.48635C16.1601 4.12943 15.8707 3.84009 15.5138 3.84009C15.1569 3.84009 14.8676 4.12943 14.8676 4.48635C14.8676 4.84327 15.1569 5.13261 15.5138 5.13261Z" fill="white"/>
</g>
<defs>
<clipPath id="clip0">
<rect width="19.4" height="19.4" fill="white" transform="translate(0.600037)"/>
</clipPath>
</defs>
</svg>
