<svg width="221" height="55" fill="none" xmlns="http://www.w3.org/2000/svg"><path d="M18.564 4.644a22.27 22.27 0 00-.625 11.645c.83 3.87 2.677 7.473 5.367 10.471.424.466.773.832 1.026 1.074l.407.401s.193.177.52.515c.326.338.794.834 1.333 1.47 3.098 3.669 5.104 8.067 5.808 12.733.328 2.16.375 4.352.139 6.524a24.925 24.925 0 01-.93 4.575c.651-.33 1.288-.688 1.912-1.075.244-.533.502-1.062.732-1.593a56.626 56.626 0 002.17-5.518c.488-1.5.815-3.044.975-4.607.202-1.909.16-3.834-.127-5.733-.616-4.095-2.37-7.957-5.078-11.185a23.663 23.663 0 00-1.17-1.295l-.435-.443-.42-.41a34.363 34.363 0 01-1.17-1.219c-4.38-4.854-6.757-11.069-6.685-17.479 0-.599.035-1.165.076-1.69L20.779 0l-.82.932c-.454 1.098-.942 2.295-1.395 3.712z" fill="#002653"/><path d="M39.521 21.06v-.013c-.404-.506-8.314-9.396-13.738-15.454.101 1.213.301 2.416.597 3.6.5 1.982 1.27 3.893 2.292 5.683a23.534 23.534 0 002.884 3.999c.424.466.775.83 1.029 1.072l.407.4s.193.177.517.518c.324.34.795.832 1.336 1.468 4.563 5.42 6.7 12.344 5.947 19.264a24.978 24.978 0 01-1.142 5.243c-.126.372-.263.724-.402 1.07 3.098-3.837 4.801-8.535 4.85-13.381.05-4.846-1.557-9.575-4.577-13.469zm-9.533 26.889a21.39 21.39 0 00-.12-5.423c-.585-3.869-2.243-7.517-4.802-10.567a22.181 22.181 0 00-1.546-1.666l-.395-.387a25.28 25.28 0 01-1.107-1.151c-2.71-2.996-4.633-6.568-5.607-10.419a23.987 23.987 0 01-.32-10.197c-1.129 1.263-2.326 2.608-3.51 3.936a41.99 41.99 0 00-.432 1.245 22.08 22.08 0 00-.614 2.33 21.197 21.197 0 00.204 9.44 21.592 21.592 0 004.896 9.148c.4.438.731.785.975 1.014l.386.38s.182.167.487.489c.305.321.751.785 1.263 1.398a24.952 24.952 0 013.328 5.108 24.14 24.14 0 012.163 6.932c.258 1.721.331 3.463.217 5.199a23.042 23.042 0 002.964-.641c.212-.564.422-1.165.634-1.8.467-1.421.78-2.885.936-4.368zM12.366 51.36a22.022 22.022 0 00-4.02-5.711l-.43-.431-.397-.387c-.27-.261-.65-.653-1.107-1.151-2.704-3-4.622-6.57-5.595-10.419a23.811 23.811 0 01-.524-2.775c-.794 4.614.038 9.348 2.365 13.46 2.328 4.113 6.019 7.37 10.493 9.26a18.593 18.593 0 00-.785-1.846z" fill="#002653"/><path d="M22.058 49.985a21.307 21.307 0 00-1.89-6.084 21.897 21.897 0 00-2.926-4.486 22.008 22.008 0 00-1.536-1.654l-.397-.39c-.27-.258-.651-.65-1.107-1.148a25.143 25.143 0 01-3.104-4.3 24.094 24.094 0 01-3.206-12.237c.012-.933.073-1.771.161-2.529-2.06 2.317-3.555 4.01-3.715 4.218l-.276.366c-.105.384-.215.83-.322 1.35a21.007 21.007 0 00.308 9.855 21.64 21.64 0 004.79 8.732c.403.44.732.785.975 1.016l.386.378s.18.17.487.489c.307.32.751.788 1.26 1.398a24.907 24.907 0 013.331 5.11 24.04 24.04 0 011.62 4.341c1.687.388 3.417.583 5.153.583h.168a21.36 21.36 0 00-.16-5.008z" fill="#002653"/><path d="M61.725 41.291h-.88l-1.6-1.91-.73.699v1.209h-.69V37.05h.69v2.251l2.328-2.25h.87l-1.95 1.92 1.962 2.32zm4.347-.536a2.232 2.232 0 01-.727.474 2.312 2.312 0 01-1.727 0 2.23 2.23 0 01-.727-.474 2.411 2.411 0 01-.6-1.584c0-.58.212-1.14.6-1.585.208-.2.456-.36.729-.468a2.33 2.33 0 011.723 0c.273.108.521.268.73.468.388.445.601 1.006.601 1.585a2.4 2.4 0 01-.602 1.584zm-2.681-.424c.132.15.296.27.482.353a1.461 1.461 0 001.185 0c.186-.083.35-.203.483-.353a1.77 1.77 0 00.395-1.165 1.742 1.742 0 00-.395-1.165 1.408 1.408 0 00-.483-.35 1.467 1.467 0 00-1.185 0c-.185.082-.35.201-.482.35a1.73 1.73 0 00-.4 1.151c-.017.426.125.844.4 1.18zm8.918.96h-.688V37.97l-1.438 3.322h-.259l-1.448-3.322v3.322h-.697v-4.24h.907l1.358 3.136 1.348-3.137h.917v4.241zm5.898 0h-.676V37.97l-1.463 3.322h-.243l-1.449-3.322v3.322h-.687v-4.24h.917l1.358 3.136 1.324-3.137h.916l.003 4.241zm1.128 1.657l.11-.596a.95.95 0 00.376.07.759.759 0 00.395-.096.74.74 0 00.265-.352l.293-.638-1.85-4.286h.73l1.478 3.47 1.463-3.47h.751l-2.219 5.092a1.29 1.29 0 01-.504.633 1.386 1.386 0 01-.798.227 1.998 1.998 0 01-.49-.054zm5.43-1.657h-.687v-4.24h.687v1.761h2.311V37.05h.695v4.241h-.687v-1.894h-2.312l-.007 1.894zm7.831 0h-.68v-.482a1.891 1.891 0 01-.664.448c-.252.1-.525.149-.799.14a1.67 1.67 0 01-1.08-.378 1.276 1.276 0 01-.358-.461 1.22 1.22 0 01-.11-.565 1.205 1.205 0 01.105-.567 1.26 1.26 0 01.358-.462c.305-.242.69-.37 1.085-.364.274-.014.547.03.8.13s.48.253.663.448v-.762a.753.753 0 00-.072-.365.788.788 0 00-.24-.292 1.291 1.291 0 00-.807-.233 1.825 1.825 0 00-1.356.587l-.321-.454c.227-.23.502-.41.807-.53.305-.12.633-.178.963-.17.442-.018.878.105 1.238.35a1.247 1.247 0 01.488 1.079l-.02 2.903zm-1.899-.368c.233.017.467-.023.68-.115.212-.092.398-.233.539-.411V39.6a1.385 1.385 0 00-.54-.413 1.452 1.452 0 00-.679-.114 1.18 1.18 0 00-.785.259.856.856 0 00-.233.302.822.822 0 00-.074.369.81.81 0 00.075.364.846.846 0 00.232.297c.219.178.499.27.785.26zm2.753.473v-.543c.206 0 .38-.133.514-.396.176-.42.287-.863.329-1.314l.285-2.086h3.082v4.234h-.688v-3.656h-1.79l-.202 1.587c-.097.777-.268 1.334-.512 1.67-.11.16-.262.291-.44.38a1.222 1.222 0 01-.579.124zm5.585-4.346h.683v1.632h1.66c.185-.011.371.015.545.075.175.06.334.154.469.276a1.26 1.26 0 010 1.893 1.366 1.366 0 01-.469.276c-.174.06-.36.086-.545.075h-2.343V37.05zm2.275 2.216h-1.592v1.438h1.587a.777.777 0 00.563-.196.793.793 0 00.198-.522.79.79 0 00-.198-.521.78.78 0 00-.558-.191v-.008zm3.201 2.025h-.687v-4.24h.687v1.761h2.312V37.05h.697v4.241h-.688v-1.894h-2.311l-.01 1.894zm7.902-.536a2.236 2.236 0 01-.729.474 2.313 2.313 0 01-1.727 0 2.232 2.232 0 01-.728-.474 2.41 2.41 0 01-.6-1.584c0-.58.212-1.14.6-1.585.208-.2.456-.36.729-.469a2.34 2.34 0 011.725 0c.273.11.521.269.73.47a2.41 2.41 0 01.599 1.584 2.41 2.41 0 01-.599 1.584zm-2.67-.424c.132.15.297.27.482.353a1.462 1.462 0 001.186 0 1.4 1.4 0 00.482-.353c.269-.333.408-.745.395-1.165a1.737 1.737 0 00-.395-1.165 1.399 1.399 0 00-.483-.35 1.462 1.462 0 00-1.667.35c-.27.327-.411.735-.4 1.151a1.76 1.76 0 00.4 1.18zm6.388 1.065c-.301.01-.6-.04-.88-.146a2.187 2.187 0 01-.744-.471 2.197 2.197 0 01-.487-.744 2.123 2.123 0 01-.144-.866 2.181 2.181 0 01.621-1.573c.197-.208.438-.374.707-.484.269-.111.56-.166.854-.16.293-.011.585.04.854.152.27.111.509.28.701.492.393.458.597 1.039.573 1.63v.155h-3.596c.018.392.187.764.475 1.044.146.14.321.25.514.322.192.073.399.106.605.1.255.006.508-.038.744-.13.235-.093.448-.231.624-.407l.329.43a2.381 2.381 0 01-.804.5 2.472 2.472 0 01-.946.156zm1.385-2.481a1.488 1.488 0 00-.386-.977 1.313 1.313 0 00-.483-.336 1.368 1.368 0 00-.589-.097 1.347 1.347 0 00-.573.1 1.29 1.29 0 00-.468.329 1.55 1.55 0 00-.427.98h2.926zm7.814 2.376h-.798l-1.331-1.736-1.329 1.736h-.789l1.706-2.174-1.616-2.067h.797l1.219 1.613 1.219-1.613h.8l-1.607 2.06 1.729 2.181zm4.315-.536c-.207.201-.453.36-.725.47a2.313 2.313 0 01-1.718 0 2.226 2.226 0 01-.726-.47 2.404 2.404 0 01-.602-1.584c0-.58.213-1.14.602-1.585a2.25 2.25 0 01.727-.464 2.33 2.33 0 011.715 0c.272.108.519.265.727.464.388.445.6 1.006.6 1.585a2.41 2.41 0 01-.6 1.584zm-2.682-.424c.129.153.294.275.481.356.187.081.392.119.597.11a1.317 1.317 0 001.073-.466 1.77 1.77 0 00.395-1.165 1.747 1.747 0 00-.395-1.165 1.28 1.28 0 00-.478-.357 1.338 1.338 0 00-.595-.109 1.363 1.363 0 00-.599.115 1.307 1.307 0 00-.479.363 1.733 1.733 0 00-.397 1.15 1.75 1.75 0 00.41 1.168h-.013zm5.971 1.065c-.851 0-1.518-.233-1.999-.699l.339-.422c.224.195.486.346.771.444.284.098.587.141.889.127.33.016.657-.055.949-.202a.635.635 0 00.255-.22.59.59 0 00.098-.314c0-.466-.465-.7-1.394-.7h-.99v-.535h.99c.325.013.648-.049.943-.18a.585.585 0 00.269-.211.542.542 0 00.099-.32.538.538 0 00-.109-.294.573.573 0 00-.259-.19 2.026 2.026 0 00-.926-.19 2.079 2.079 0 00-.802.125 2.008 2.008 0 00-.683.419l-.358-.403c.237-.227.521-.404.833-.52a2.53 2.53 0 01.983-.156 3.072 3.072 0 011.463.293.968.968 0 01.409.342.906.906 0 01.154.497.845.845 0 01-.371.7 1.699 1.699 0 01-.821.323 1.9 1.9 0 01.877.298.865.865 0 01.306.317c.071.13.106.274.102.42a1.003 1.003 0 01-.149.515 1.06 1.06 0 01-.398.375 2.74 2.74 0 01-1.47.361zm3.806-.105h-.807l1.183-1.666a1.3 1.3 0 01-.822-.403 1.361 1.361 0 01-.312-.909 1.36 1.36 0 01.373-.887 1.37 1.37 0 01.473-.288 1.42 1.42 0 01.553-.08h2.338v4.233h-.687v-1.63h-1.219l-1.073 1.63zm.714-2.218h1.578v-1.438h-1.578a.783.783 0 00-.563.198.69.69 0 00-.207.52.657.657 0 00.211.53.737.737 0 00.559.19zm4.303 2.218h-.66v-4.24h.687v3.234l2.321-3.235h.678v4.241h-.692v-3.297l-2.334 3.297zm2.787-5.487c-.179.245-.42.444-.7.58-.28.134-.591.2-.904.191a1.998 1.998 0 01-.907-.194 1.904 1.904 0 01-.707-.577l.339-.282c.14.199.33.361.553.471.223.11.471.166.722.16.25.007.497-.047.719-.158.221-.11.409-.273.546-.473l.339.282zm3.567 5.592a2.154 2.154 0 01-.87-.151 2.071 2.071 0 01-.724-.485 2.38 2.38 0 01-.615-1.59c0-.582.218-1.145.615-1.588.203-.208.45-.372.726-.48a2.16 2.16 0 01.868-.15c.313-.01.623.051.906.18.283.127.529.319.718.557l-.458.403a1.32 1.32 0 00-.491-.413 1.385 1.385 0 00-.638-.14 1.468 1.468 0 00-.613.113 1.4 1.4 0 00-.501.354 1.88 1.88 0 00-.418 1.176c0 .426.147.84.418 1.177.137.153.308.274.501.355.193.08.402.119.613.111.221.004.44-.044.637-.14.197-.097.366-.238.492-.412l.458.403a1.941 1.941 0 01-.72.549 2.032 2.032 0 01-.904.171zm4.082-.105h-.688v-3.656h-1.282v-.585h3.264v.578h-1.294v3.663zm4.678 0h-2.487v-4.24h2.438c.333-.019.661.088.912.298a.99.99 0 01.337.788.963.963 0 01-.208.617.986.986 0 01-.509.347c.232.057.435.19.573.377.156.187.242.419.244.658.007.153-.02.307-.08.45a1.094 1.094 0 01-.264.382 1.362 1.362 0 01-.956.324zm-.166-2.463a.694.694 0 00.488-.163.546.546 0 00.173-.424.558.558 0 00-.038-.239.593.593 0 00-.135-.204.675.675 0 00-.488-.163h-1.631v1.193h1.631zm.027 1.883a.752.752 0 00.524-.165.607.607 0 00.193-.466.623.623 0 00-.193-.466.692.692 0 00-.24-.15.724.724 0 00-.284-.044h-1.658v1.305l1.658-.014zm6.262.044c-.207.201-.454.36-.726.47a2.313 2.313 0 01-1.718 0 2.237 2.237 0 01-.726-.47 2.404 2.404 0 01-.602-1.584c0-.58.213-1.14.602-1.585a2.25 2.25 0 01.727-.464 2.33 2.33 0 011.715 0c.272.108.519.265.728.464.387.445.599 1.006.599 1.585s-.212 1.14-.599 1.584zm-2.67-.424c.132.15.297.27.482.353a1.462 1.462 0 001.186 0 1.4 1.4 0 00.482-.353c.269-.333.408-.745.395-1.165a1.737 1.737 0 00-.395-1.165 1.399 1.399 0 00-.483-.35 1.462 1.462 0 00-1.667.35c-.27.327-.411.735-.4 1.151-.016.426.125.844.4 1.18zm-97.938-8.109h-4.277l3.935-6.357a4.91 4.91 0 01-2.713-1.63c-.743-.854-1.115-1.965-1.117-3.335 0-1.59.53-2.885 1.587-3.887 1.058-1.002 2.489-1.504 4.291-1.505h8.185V32.23h-3.725v-5.94H65.85l-3.464 5.933zm2.257-9.076h3.901v-4.504h-3.9a2.845 2.845 0 00-1.89.615 2.273 2.273 0 00-.543.749 2.185 2.185 0 000 1.785c.126.282.311.537.543.75a2.848 2.848 0 001.89.605zm16.894 9.377c-2.063 0-3.694-.647-4.893-1.941-1.2-1.294-1.798-2.954-1.795-4.978 0-2.89.543-5.055 1.629-6.494 1.086-1.438 2.737-2.3 4.954-2.584 1.906-.266 2.86-.608 2.86-1.028h3.462c0 1.756-1.757 2.843-5.271 3.263-2.643.335-4.165 1.345-4.567 3.029 1.044-1.322 2.487-1.983 4.33-1.983a5.638 5.638 0 012.377.46 5.402 5.402 0 011.929 1.404 6.457 6.457 0 011.665 4.465 6.223 6.223 0 01-1.823 4.537c-1.208 1.233-2.827 1.85-4.857 1.85zm-2.36-3.861c.28.337.64.606 1.05.785.41.179.86.263 1.31.245a3.02 3.02 0 001.315-.246 2.887 2.887 0 001.06-.784 3.8 3.8 0 00.88-2.564 3.61 3.61 0 00-.88-2.444 3.179 3.179 0 00-1.07-.749 3.306 3.306 0 00-2.592-.007 3.18 3.18 0 00-1.073.742 3.624 3.624 0 00-.866 2.458 3.828 3.828 0 00.866 2.564zm10.44 3.861v-2.608c.526 0 .947-.296 1.26-.89.314-.593.567-1.608.76-3.045l.815-5.868h10.257V32.23h-3.333v-9.32h-4.013l-.42 3.457c-.262 2.125-.817 3.684-1.664 4.677-.847.993-2.068 1.486-3.662 1.48zm27.153-1.841c-1.224 1.229-2.85 1.842-4.877 1.84-2.027 0-3.652-.614-4.876-1.84a6.188 6.188 0 01-1.824-4.528 6.05 6.05 0 01.447-2.432 6.276 6.276 0 011.392-2.081c1.214-1.218 2.839-1.828 4.876-1.83 2.037-.001 3.662.609 4.876 1.83a6.242 6.242 0 011.393 2.08c.316.775.467 1.602.445 2.433a6.057 6.057 0 01-.452 2.441 6.299 6.299 0 01-1.4 2.087zm-7.242-2.006c.284.333.646.599 1.056.775.41.176.858.259 1.307.24.451.018.9-.065 1.312-.241a2.917 2.917 0 001.063-.774 3.718 3.718 0 00.877-2.522 3.676 3.676 0 00-.877-2.493 2.916 2.916 0 00-1.063-.774 3.044 3.044 0 00-1.312-.242 3 3 0 00-1.307.24 2.872 2.872 0 00-1.056.776 3.715 3.715 0 00-.865 2.493 3.762 3.762 0 00.865 2.522zm14.878 3.546h-3.333V20.105h3.333v4.488h5.246v-4.48h3.331v12.116h-3.331v-4.844h-5.246v4.837zm22.64-1.54c-1.226 1.229-2.851 1.842-4.876 1.84-2.025 0-3.651-.614-4.876-1.84a6.188 6.188 0 01-1.824-4.528 6.04 6.04 0 01.44-2.43 6.257 6.257 0 011.384-2.083c1.217-1.218 2.843-1.828 4.876-1.83 2.033-.001 3.659.609 4.876 1.83a6.24 6.24 0 011.392 2.08c.315.775.466 1.602.444 2.433a6.08 6.08 0 01-.445 2.44 6.294 6.294 0 01-1.391 2.088zm-7.241-2.006c.283.333.644.599 1.054.775a3 3 0 001.306.24c.451.018.9-.065 1.312-.241a2.917 2.917 0 001.063-.774 3.718 3.718 0 00.877-2.522 3.676 3.676 0 00-.877-2.493 2.916 2.916 0 00-1.063-.774 3.044 3.044 0 00-1.312-.242 2.987 2.987 0 00-1.306.24c-.41.176-.771.442-1.054.776a3.704 3.704 0 00-.866 2.493 3.752 3.752 0 00.866 2.522zm19.807 3.546h-8.265V20.105h8.028c1.224 0 2.177.301 2.86.904.327.275.588.615.764.995.176.38.264.793.258 1.21a2.673 2.673 0 01-.57 1.739c-.391.501-.948.86-1.581 1.02.69.144 1.303.517 1.731 1.053.452.54.693 1.214.683 1.906.013.44-.072.879-.251 1.285a3.09 3.09 0 01-.785 1.07c-.693.625-1.65.937-2.872.935zm-.919-7.47c.312.012.618-.092.853-.29a.93.93 0 00.245-.323.887.887 0 00.082-.392.972.972 0 00-.315-.739 1.235 1.235 0 00-.865-.288h-4.013v2.032h4.013zm.104 4.863c.348.017.69-.09.959-.3.119-.105.212-.234.273-.377a.988.988 0 00.08-.451 1.028 1.028 0 00-.087-.437 1.074 1.074 0 00-.266-.365 1.348 1.348 0 00-.959-.326h-4.117v2.256h4.117zm13.819 2.908c-1.96 0-3.569-.593-4.827-1.778-1.258-1.186-1.888-2.716-1.89-4.59 0-1.856.63-3.376 1.89-4.563 1.26-1.187 2.869-1.782 4.827-1.785 2.239 0 3.909.727 5.011 2.18l-2.178 1.956a2.984 2.984 0 00-1.159-.992 3.149 3.149 0 00-1.523-.31 3.394 3.394 0 00-1.347.227 3.268 3.268 0 00-1.13.737c-.638.643-.958 1.491-.958 2.545 0 1.053.32 1.907.958 2.563a3.25 3.25 0 001.128.746 3.37 3.37 0 001.349.233 3.23 3.23 0 001.518-.322 3.06 3.06 0 001.164-.983l2.178 1.931c-1.098 1.47-2.768 2.205-5.011 2.205zm19.578-.301h-4.171l-3.358-4.66-1.521 1.554v3.108h-3.333V20.107h3.333V25.5l4.8-5.393h4.092l-5.011 5.497 5.169 6.618zm12.408-1.54c-1.224 1.229-2.85 1.842-4.876 1.84-2.027 0-3.653-.614-4.877-1.84a6.19 6.19 0 01-1.823-4.528 6.038 6.038 0 01.439-2.43 6.273 6.273 0 011.384-2.083c1.218-1.218 2.843-1.828 4.877-1.83 2.033-.001 3.658.609 4.876 1.83a6.236 6.236 0 011.393 2.08c.316.775.467 1.602.445 2.433a6.064 6.064 0 01-.445 2.44 6.293 6.293 0 01-1.393 2.088zm-7.239-2.006c.283.333.644.599 1.054.775a3 3 0 001.306.24c.451.018.9-.065 1.312-.241a2.917 2.917 0 001.063-.774 3.724 3.724 0 00.878-2.522 3.677 3.677 0 00-.878-2.493 2.916 2.916 0 00-1.063-.774 3.044 3.044 0 00-1.312-.242 2.99 2.99 0 00-1.306.24c-.41.176-.771.442-1.054.776a3.703 3.703 0 00-.865 2.493 3.746 3.746 0 00.865 2.522zm17.498 3.847c-1.96 0-3.578-.585-4.854-1.755-1.276-1.17-1.914-2.708-1.914-4.614-.022-.832.13-1.66.447-2.435a6.235 6.235 0 011.401-2.078c1.234-1.223 2.804-1.834 4.71-1.834 1.907 0 3.437.614 4.591 1.843 1.171 1.229 1.756 2.837 1.758 4.826v.699h-9.418a3.033 3.033 0 001.126 2.004 3.823 3.823 0 002.519.804 5.832 5.832 0 001.823-.326 4.048 4.048 0 001.561-.879l1.463 2.058c-1.273 1.124-3.011 1.687-5.213 1.687zm2.911-7.497a2.99 2.99 0 00-.853-1.864c-.514-.553-1.27-.828-2.268-.827-.946 0-1.677.272-2.194.816a3.206 3.206 0 00-.919 1.864l6.234.011z" fill="#222"/></svg>