<svg width="17" height="21" viewBox="0 0 17 21" fill="none" xmlns="http://www.w3.org/2000/svg">
<path d="M16 8.5C16 14.3333 8.5 19.3333 8.5 19.3333C8.5 19.3333 1 14.3333 1 8.5C1 6.51088 1.79018 4.60322 3.1967 3.1967C4.60322 1.79018 6.51088 1 8.5 1C10.4891 1 12.3968 1.79018 13.8033 3.1967C15.2098 4.60322 16 6.51088 16 8.5Z" stroke="white" stroke-width="2" stroke-linecap="round" stroke-linejoin="round"/>
<path d="M8.49997 11C9.88068 11 11 9.88071 11 8.5C11 7.11929 9.88068 6 8.49997 6C7.11926 6 5.99997 7.11929 5.99997 8.5C5.99997 9.88071 7.11926 11 8.49997 11Z" stroke="white" stroke-width="2" stroke-linecap="round" stroke-linejoin="round"/>
</svg>
