<svg width="22" height="18" viewBox="0 0 22 18" fill="none" xmlns="http://www.w3.org/2000/svg">
<path d="M15.2222 17V15.2222C15.2222 14.2792 14.8476 13.3749 14.1808 12.7081C13.514 12.0413 12.6097 11.6667 11.6667 11.6667H4.55555C3.61256 11.6667 2.70819 12.0413 2.0414 12.7081C1.3746 13.3749 1 14.2792 1 15.2222V17" stroke="white" stroke-width="2" stroke-linecap="round" stroke-linejoin="round"/>
<path d="M8.1111 8.11111C10.0748 8.11111 11.6667 6.51923 11.6667 4.55555C11.6667 2.59188 10.0748 1 8.1111 1C6.14742 1 4.55554 2.59188 4.55554 4.55555C4.55554 6.51923 6.14742 8.11111 8.1111 8.11111Z" stroke="white" stroke-width="2" stroke-linecap="round" stroke-linejoin="round"/>
<path d="M20.5555 17V15.2222C20.5549 14.4344 20.2927 13.6691 19.8101 13.0465C19.3274 12.4239 18.6516 11.9792 17.8889 11.7822" stroke="white" stroke-width="2" stroke-linecap="round" stroke-linejoin="round"/>
<path d="M14.3333 1.11557C15.0981 1.31139 15.776 1.75619 16.2601 2.37985C16.7442 3.0035 17.007 3.77053 17.007 4.56001C17.007 5.3495 16.7442 6.11653 16.2601 6.74018C15.776 7.36383 15.0981 7.80863 14.3333 8.00446" stroke="white" stroke-width="2" stroke-linecap="round" stroke-linejoin="round"/>
</svg>
