<svg width="174" height="186" viewBox="0 0 174 186" fill="none" xmlns="http://www.w3.org/2000/svg">
<path d="M182.195 172.107L182.085 172.016L144.412 134.162L145.377 132.882C155.876 119.397 161.638 102.8 161.764 85.6797C161.764 65.3003 153.707 45.7556 139.365 31.3452C125.023 16.9348 105.571 8.83914 85.2879 8.83914C65.0051 8.83914 45.5531 16.9348 31.211 31.3452C16.8688 45.7556 8.81152 65.3003 8.81152 85.6797C8.81152 106.059 16.8688 125.604 31.211 140.014C45.5531 154.425 65.0051 162.52 85.2879 162.52C102.327 162.394 118.846 156.604 132.266 146.054L133.541 145.085L171.215 182.938C171.989 183.655 172.899 184.207 173.891 184.563C174.883 184.918 175.936 185.068 176.987 185.005C178.037 185.071 179.089 184.923 180.081 184.571C181.072 184.219 181.983 183.67 182.759 182.956C183.466 182.357 184.034 181.609 184.421 180.765C184.808 179.92 185.005 179.001 184.999 178.071C184.992 176.932 184.738 175.808 184.254 174.777C183.769 173.747 183.067 172.836 182.195 172.107ZM139.149 127.558L126.786 139.962C115.079 149.012 100.714 153.902 85.9435 153.867C48.8706 153.208 18.717 122.911 18.717 86.3201C18.7603 68.4207 25.8575 51.2671 38.4561 38.612C51.0546 25.9569 68.1289 18.8305 85.9435 18.7918C103.752 18.8401 120.817 25.9708 133.407 38.6248C145.998 51.2789 153.09 68.427 153.133 86.3201C153.104 101.156 148.244 115.574 139.295 127.375L139.149 127.558Z" fill="#C2D8E7"/>
<path d="M4.47881 27.061C5.40738 27.119 6.32279 26.8176 7.03724 26.2189C7.75169 25.6201 8.21096 24.7693 8.32082 23.841V7.7411H24.3445C25.2683 7.63073 26.1151 7.16926 26.711 6.45142C27.307 5.73357 27.6069 4.81377 27.5492 3.88078C27.6069 2.94778 27.307 2.02799 26.711 1.31014C26.1151 0.592293 25.2683 0.130831 24.3445 0.0204544H5.11607C4.11953 0.0888598 3.18136 0.517539 2.47506 1.2272C1.76877 1.93686 1.34214 2.8795 1.27406 3.88078V23.2007C1.12826 23.6779 1.10327 24.1841 1.20132 24.6734C1.29938 25.1628 1.51736 25.6198 1.83558 26.0032C2.15381 26.3865 2.56221 26.684 3.02375 26.8687C3.48529 27.0534 3.98543 27.1195 4.47881 27.061Z" fill="#C2D8E7"/>
<path d="M147.471 8.38211H163.495V24.3906C163.495 26.3299 164.132 27.6106 166.062 27.6106C167.992 27.6106 168.63 26.3299 168.63 24.3906V5.14383C168.63 3.20452 167.992 1.28351 166.062 1.28351H146.834C145.91 1.39389 145.063 1.85533 144.467 2.57318C143.871 3.29103 143.571 4.21084 143.629 5.14383C144.212 6.44281 145.541 8.38211 147.471 8.38211Z" fill="#C2D8E7"/>
<path d="M23.7259 164.917H7.64767V148.799C7.53782 147.87 7.07854 147.02 6.36409 146.421C5.64965 145.822 4.73424 145.521 3.80566 145.579C2.88317 145.53 1.97682 145.836 1.27024 146.434C0.563657 147.032 0.109597 147.877 0 148.799V168.155C0 170.095 1.93015 170.735 3.84206 170.735H23.0704C25.0005 170.735 26.2752 170.095 26.2752 168.155C26.2752 166.216 25.6378 164.917 23.7259 164.917Z" fill="#C2D8E7"/>
<path d="M83.6148 59.6452C84.7513 59.6189 85.8884 59.6617 87.0198 59.7733C91.124 60.2465 95.087 61.5646 98.6616 63.6453C102.236 65.726 105.346 68.5246 107.796 71.8665C108.624 73.3526 109.899 74.5374 111.438 75.2511C112.051 75.4289 112.701 75.4413 113.321 75.2872C113.941 75.133 114.51 74.8177 114.97 74.373C115.41 73.9085 115.72 73.3361 115.87 72.7132C116.02 72.0904 116.005 71.4388 115.826 70.8237C115.546 70.0833 115.132 69.4011 114.606 68.8112C109.462 62.3765 102.287 57.8975 94.2669 56.1142C88.8418 54.9464 83.2163 55.1116 77.8683 56.5959C72.5204 58.0802 67.6081 60.8397 63.5488 64.6398C53.88 73.7875 53.1881 81.1056 53.1152 89.924C53.1789 84.0282 55.013 78.289 58.3775 73.4582C61.273 69.3905 65.0479 66.0345 69.4188 63.6422C73.7897 61.2499 78.6431 59.8834 83.6148 59.6452Z" fill="#C2D8E7"/>
<path d="M91.4077 88.7351L90.7158 88.4058L90.4245 88.296L89.5504 87.9667H89.2955L88.3487 87.7105H87.9663L87.0923 87.5825H86.7099C85.8741 87.504 85.0329 87.504 84.1971 87.5825H83.8147L82.9407 87.7105H82.5583L81.7025 87.9301L81.3747 88.0216L80.5007 88.3509L80.2094 88.4607L79.5357 88.79C77.4313 89.8495 75.6418 91.4473 74.3472 93.4225C73.0527 95.3977 72.2987 97.6806 72.1611 100.042V100.353V100.792C72.166 104.347 73.5737 107.755 76.0757 110.269C78.5777 112.783 81.9697 114.197 85.5081 114.202C89.0274 114.154 92.3858 112.713 94.854 110.192C97.3223 107.671 98.7011 104.273 98.6912 100.737V100.005C98.5657 97.6502 97.8268 95.3698 96.5486 93.3919C95.2704 91.4141 93.4976 89.8083 91.4077 88.7351ZM85.4717 108.97C83.2937 108.97 81.2049 108.1 79.6649 106.553C78.1248 105.006 77.2596 102.907 77.2596 100.719C77.2596 98.5302 78.1248 96.4315 79.6649 94.8841C81.2049 93.3367 83.2937 92.4673 85.4717 92.4673C87.6497 92.4673 89.7385 93.3367 91.2785 94.8841C92.8186 96.4315 93.6838 98.5302 93.6838 100.719C93.6838 101.808 93.469 102.887 93.0518 103.893C92.6346 104.899 92.0231 105.812 91.2529 106.579C90.4826 107.346 89.5686 107.952 88.5639 108.363C87.5591 108.773 86.4834 108.979 85.3989 108.97H85.4717Z" fill="#C2D8E7"/>
<path d="M139.295 71.8484L92.1349 90.3816L91.9528 90.2352C91.5614 90.3994 91.1518 90.5161 90.7329 90.5828C90.0956 90.6926 91.5523 89.9059 90.7329 89.9608C93.8465 93.4369 94.7752 98.5047 95.2304 103.243L95.6128 102.987C96.2319 102.566 94.5567 103.774 95.1576 103.353L96.0862 102.694L96.414 102.457C96.7468 102.202 97.1001 101.976 97.4701 101.78V101.231L139.295 71.8484Z" fill="#C2D8E7"/>
<path d="M133.998 110.598V110.452C136.78 103.963 138.218 96.972 138.222 89.9062C138.308 85.0748 137.669 80.258 136.329 75.6175C136.074 74.7211 135.673 73.788 135.309 72.8549C131.856 62.3136 125.164 53.1448 116.195 46.6681C107.226 40.1915 96.4436 36.7409 85.3989 36.8131C71.4044 36.8469 57.9928 42.4476 48.0972 52.3903C38.2016 62.333 32.6274 75.8085 32.5938 89.8696C32.5918 96.9205 34.0166 103.898 36.7817 110.379C36.9175 110.726 37.1259 111.039 37.393 111.298C37.66 111.557 37.9795 111.755 38.3295 111.879C38.6019 111.974 38.8919 112.006 39.1784 111.975C39.4649 111.943 39.7409 111.848 39.9865 111.696H40.1321C40.7298 111.403 41.191 110.888 41.4186 110.26C41.6461 109.632 41.6223 108.94 41.3521 108.33C38.8828 102.508 37.6427 96.2344 37.7104 89.9062C37.72 77.1961 42.7457 65.0086 51.6854 56.016C60.625 47.0235 72.7491 41.96 85.3989 41.9358C95.5062 41.9238 105.357 45.1314 113.536 51.0977C121.716 57.0641 127.802 65.4819 130.921 75.1419L131.212 76.0566H131.012L131.103 76.3493L131.248 76.2396L131.631 77.6483C132.663 81.6252 133.159 85.7234 133.106 89.833C133.178 96.1735 131.938 102.46 129.464 108.293C129.224 108.936 129.224 109.644 129.464 110.287C129.568 110.586 129.734 110.86 129.95 111.09C130.167 111.32 130.429 111.502 130.72 111.623H130.921L131.066 111.769C131.302 111.802 131.541 111.802 131.776 111.769C132.222 111.827 132.674 111.745 133.071 111.536C133.468 111.326 133.792 110.999 133.998 110.598Z" fill="#C2D8E7"/>
</svg>
