<svg width="174" height="185" viewBox="0 0 174 185" fill="none" xmlns="http://www.w3.org/2000/svg">
<path d="M157.901 27.0996C140.448 9.61133 117.215 0 92.5 0C67.7853 0 44.5518 9.61133 27.0996 27.0996C9.64743 44.5879 0 67.7853 0 92.5C0 117.215 9.61133 140.448 27.0996 157.901C44.5879 175.389 67.7853 185 92.5 185C117.215 185 140.448 175.389 157.901 157.901C175.389 140.412 185 117.215 185 92.5C185 67.7853 175.389 44.5518 157.901 27.0996ZM153.889 153.889C137.486 170.294 115.697 179.327 92.5 179.327C69.3029 179.327 47.5146 170.294 31.1104 153.889C14.706 137.486 5.67285 115.697 5.67285 92.5C5.67285 69.3029 14.706 47.5146 31.1104 31.1104C47.5146 14.706 69.3029 5.67285 92.5 5.67285C115.697 5.67285 137.486 14.706 153.889 31.1104C170.294 47.5146 179.327 69.3029 179.327 92.5C179.327 115.697 170.294 137.486 153.889 153.889Z" fill="#C2D8E7"/>
<path d="M95.501 90.2238H89.4668V95.8962H95.501V90.2238Z" fill="#C2D8E7"/>
<path d="M139.47 45.9246C126.968 33.4588 110.274 26.5935 92.4972 26.5935C74.72 26.5935 58.0264 33.4588 45.5244 45.9246C32.9502 58.4266 26.085 75.1558 26.085 93.0421V95.8599H63.4463V93.0421C63.4463 86.0683 65.9031 79.4918 70.3112 74.2889L84.7285 88.7061L88.7392 84.6954L74.3946 70.3503C79.5255 66.2675 85.8487 64.0635 92.5329 64.0635C100.302 64.0635 107.601 67.0624 113.056 72.4822C118.513 77.9385 121.584 85.237 121.584 93.0421V95.8599H158.945V93.0421C158.909 75.1922 152.044 58.4627 139.47 45.9246ZM127.04 90.2237C126.462 82.8161 123.535 75.8786 118.693 70.3145L125.198 63.8102L121.186 59.7996L114.647 66.3396C109.01 61.6786 102.145 58.9324 94.7733 58.4627V49.0682H89.1009V58.535C82.1634 59.1854 75.6954 61.8953 70.3476 66.3032L58.3155 54.2713L54.3047 58.282L66.2648 70.2418C61.4229 75.8065 58.4961 82.744 57.918 90.151H31.7578C32.4444 74.8668 38.6953 60.6307 49.4991 49.8631C60.9531 38.4451 76.2013 32.158 92.4972 32.158C108.793 32.158 124.041 38.4451 135.495 49.8631C146.299 60.6307 152.55 74.8668 153.237 90.151H127.04V90.2237Z" fill="#C2D8E7"/>
<path d="M46.2852 104.135V138.714H138.713V104.135H46.2852ZM133.04 133.041H51.958V109.771H133.076L133.04 133.041Z" fill="#C2D8E7"/>
<path d="M95.501 144.965H89.4668V150.638H95.501V144.965Z" fill="#C2D8E7"/>
<path d="M106.846 144.965H101.174V150.638H106.846V144.965Z" fill="#C2D8E7"/>
<path d="M83.8297 144.965H78.1572V150.638H83.8297V144.965Z" fill="#C2D8E7"/>
<path d="M66.0834 124.188H60.4102V130.223H66.0834V124.188Z" fill="#C2D8E7"/>
<path d="M77.7942 115.517H72.1211V130.223H77.7942V115.517Z" fill="#C2D8E7"/>
<path d="M89.1051 124.188H83.4326V130.223H89.1051V124.188Z" fill="#C2D8E7"/>
<path d="M100.813 115.517H95.1396V130.223H100.813V115.517Z" fill="#C2D8E7"/>
<path d="M112.119 124.188H106.446V130.223H112.119V124.188Z" fill="#C2D8E7"/>
<path d="M123.826 115.517H118.153V130.223H123.826V115.517Z" fill="#C2D8E7"/>
</svg>
