<svg width="175" height="185" viewBox="0 0 175 185" fill="none" xmlns="http://www.w3.org/2000/svg">
<path d="M67.6642 30.1886C69.1489 30.1517 70.6345 30.2058 72.1128 30.3506C77.4598 30.9809 82.6218 32.7192 87.2778 35.4574C91.9339 38.1957 95.9844 41.8754 99.1778 46.2678C100.51 48.0499 101.842 50.0615 103.866 50.7096C104.667 50.9509 105.516 50.9705 106.327 50.7663C107.137 50.5621 107.879 50.1416 108.475 49.5485C109.055 48.9391 109.464 48.1831 109.659 47.3591C109.853 46.5352 109.826 45.6735 109.58 44.8638C109.222 43.8718 108.684 42.9561 107.995 42.1637C101.283 33.7001 91.9237 27.8093 81.4631 25.4634C74.4032 23.9483 67.0875 24.1767 60.133 26.1293C53.1785 28.0819 46.7894 31.7014 41.5048 36.6824C28.878 48.6305 27.9721 58.2834 27.8789 69.9885C27.9476 62.1927 30.3437 54.6007 34.7518 48.2119C42.3705 37.6274 54.6911 30.4586 67.6642 30.1886Z" fill="#C2D8E7"/>
<path d="M77.7552 68.4489C77.4621 68.3004 77.1691 68.1384 76.8627 68.0169L76.4897 67.8684C76.1035 67.7064 75.7305 67.5714 75.3443 67.4364L75.0246 67.3419C74.5451 67.1934 74.1723 67.0989 73.786 67.0179L73.2799 66.9098C72.9069 66.8423 72.5207 66.7748 72.1477 66.7343H71.6549C70.5651 66.6313 69.4681 66.6313 68.3782 66.7343H67.8854C67.4992 66.7343 67.1262 66.8423 66.74 66.9098L66.2338 67.0179C65.8476 67.0989 65.4747 67.2069 65.1017 67.3149L64.6754 67.4499C64.2891 67.5714 63.9029 67.7199 63.53 67.8819L63.1438 68.0304C62.8508 68.1654 62.5577 68.3139 62.2647 68.4624C59.5128 69.8607 57.1735 71.97 55.4827 74.5774C53.7919 77.1847 52.8097 80.198 52.6348 83.3131V83.7181V84.1906C52.6383 88.8765 54.4764 93.3695 57.7453 96.6829C61.0143 99.9963 65.4468 101.859 70.0698 101.863C74.6813 101.842 79.0969 99.9706 82.3514 96.6591C85.606 93.3476 87.4349 88.8649 87.4384 84.1906V83.2186C87.246 80.1117 86.2497 77.1109 84.5498 74.5182C82.85 71.9254 80.5066 69.8322 77.7552 68.4489ZM70.0032 95.0991C67.1825 95.0814 64.4824 93.9379 62.4879 91.9162C60.4934 89.8945 59.3651 87.1577 59.3476 84.2987C59.3651 81.4396 60.4934 78.7028 62.4879 76.6811C64.4824 74.6594 67.1825 73.5159 70.0032 73.4981C72.8238 73.5159 75.5241 74.6594 77.5186 76.6811C79.5131 78.7028 80.6412 81.4396 80.6587 84.2987C80.6412 87.1577 79.5131 89.8945 77.5186 91.9162C75.5241 93.9379 72.8238 95.0814 70.0032 95.0991Z" fill="#C2D8E7"/>
<path d="M140.361 46.2138L78.8121 70.6095L78.5723 70.4205C78.0596 70.6377 77.523 70.7918 76.9741 70.8795C76.1349 71.0145 78.0529 69.975 76.9741 70.0425C81.0498 74.6192 82.3017 81.302 82.8478 87.5933L83.3406 87.2693C84.1531 86.7292 82.0088 88.3088 82.7546 87.7553L83.9534 86.8913C84.6016 86.3962 84.7481 86.2927 84.3929 86.5807C84.8121 86.2433 85.2575 85.9407 85.7248 85.6762V85.0282L140.361 46.2138Z" fill="#C2D8E7"/>
<path d="M129.83 51.7898L129.577 51.8843L129.697 52.2623L129.897 52.1273L130.389 53.9769C131.682 58.9925 132.326 64.1569 132.307 69.3407C133.266 68.6651 134.363 68.2183 135.516 68.0336C136.67 67.8489 137.849 67.9311 138.967 68.2741C138.927 62.4585 138.079 56.6775 136.45 51.1013C136.117 49.9267 135.597 48.7927 135.118 47.4696C130.611 33.5886 121.876 21.5145 110.17 12.9846C98.4634 4.45482 84.3894 -0.0909635 69.9725 0.00137953C51.6734 0.0228182 34.1298 7.4005 21.1904 20.516C8.25104 33.6314 0.972323 51.4136 0.951172 69.9617C0.968492 79.2489 2.84916 88.4355 6.47876 96.963C6.65518 97.4183 6.92603 97.83 7.27302 98.1701C7.62001 98.5101 8.03506 98.7707 8.49001 98.934C8.84601 99.0615 9.22547 99.107 9.60099 99.0673C9.97651 99.0276 10.3387 98.9037 10.6611 98.7045L10.8476 98.61C11.6291 98.2268 12.2329 97.5504 12.5312 96.7239C12.8295 95.8975 12.7988 94.9858 12.4458 94.1818C9.2066 86.5052 7.57826 78.2295 7.66421 69.8807C7.68184 53.1362 14.2521 37.0826 25.9334 25.2424C37.6146 13.4022 53.4527 6.74257 69.9725 6.7247C83.1659 6.70741 96.0252 10.9292 106.703 18.7835C117.381 26.6379 125.329 37.7206 129.404 50.4398L129.83 51.7898Z" fill="#C2D8E7"/>
<path d="M141.373 113.177C142.858 113.14 144.343 113.194 145.822 113.339C151.169 113.969 156.331 115.708 160.987 118.446C165.643 121.184 169.693 124.864 172.887 129.256C174.219 131.038 175.551 133.05 177.575 133.698C178.376 133.939 179.225 133.959 180.036 133.755C180.846 133.551 181.588 133.13 182.184 132.537C182.764 131.928 183.173 131.171 183.368 130.348C183.562 129.524 183.535 128.662 183.289 127.852C182.931 126.86 182.393 125.945 181.704 125.152C174.985 116.704 165.627 110.827 155.172 108.492C148.112 106.977 140.796 107.206 133.842 109.158C126.887 111.111 120.498 114.73 115.214 119.711C102.587 131.659 101.681 141.312 101.588 153.017C101.657 145.222 104.053 137.63 108.461 131.241C116.079 120.643 128.4 113.501 141.373 113.177Z" fill="#C2D8E7"/>
<path d="M151.465 151.491C151.172 151.343 150.879 151.181 150.573 151.059L150.2 150.911C149.814 150.749 149.441 150.614 149.054 150.479L148.735 150.384C148.255 150.236 147.882 150.141 147.496 150.06L146.99 149.952C146.617 149.885 146.231 149.817 145.858 149.777H145.365C144.275 149.674 143.178 149.674 142.088 149.777H141.595C141.209 149.777 140.836 149.885 140.45 149.952L139.944 150.06C139.558 150.141 139.185 150.249 138.812 150.357L138.386 150.492C137.999 150.614 137.613 150.762 137.24 150.924L136.854 151.073C136.561 151.208 136.268 151.356 135.975 151.505C133.223 152.903 130.884 155.012 129.193 157.62C127.502 160.227 126.52 163.24 126.345 166.356V166.761V167.328C126.348 172.014 128.186 176.506 131.455 179.82C134.724 183.133 139.157 184.996 143.78 185C148.4 184.979 152.824 183.1 156.08 179.777C159.336 176.454 161.159 171.957 161.148 167.274V166.302C160.963 163.188 159.97 160.178 158.27 157.578C156.569 154.978 154.222 152.878 151.465 151.491ZM143.713 178.142C140.893 178.124 138.192 176.98 136.198 174.959C134.203 172.937 133.075 170.2 133.058 167.341C133.075 164.482 134.203 161.745 136.198 159.724C138.192 157.702 140.893 156.558 143.713 156.541C146.534 156.558 149.234 157.702 151.229 159.724C153.223 161.745 154.351 164.482 154.369 167.341C154.351 170.2 153.223 172.937 151.229 174.959C149.234 176.98 146.534 178.124 143.713 178.142Z" fill="#C2D8E7"/>
<path d="M214.085 129.243L152.536 153.639L152.296 153.45C151.783 153.667 151.247 153.821 150.698 153.909C149.859 154.044 151.777 153.004 150.698 153.072C154.773 157.649 156.025 164.331 156.572 170.623L157.064 170.299C157.877 169.759 155.732 171.338 156.478 170.785L157.677 169.921C158.325 169.426 158.472 169.322 158.117 169.61C158.536 169.273 158.981 168.97 159.448 168.706V168.058L214.085 129.243Z" fill="#C2D8E7"/>
<path d="M207.158 180.261V180.059C210.788 171.532 212.668 162.345 212.685 153.058C212.786 146.664 211.933 140.292 210.155 134.157C209.822 132.982 209.302 131.848 208.823 130.525C204.316 116.644 195.581 104.57 183.875 96.0401C172.169 87.5103 158.094 82.9645 143.678 83.0569C125.381 83.089 107.844 90.4752 94.912 103.595C81.9804 116.715 74.7104 134.498 74.6963 153.044C74.7136 162.331 76.5943 171.518 80.2239 180.045C80.4003 180.501 80.6711 180.913 81.0181 181.253C81.3651 181.593 81.7802 181.853 82.2351 182.017C82.5911 182.144 82.9706 182.19 83.3461 182.15C83.7216 182.11 84.0838 181.986 84.4062 181.787L84.5927 181.693C85.3742 181.309 85.978 180.633 86.2763 179.806C86.5746 178.98 86.544 178.068 86.191 177.264C82.9517 169.588 81.3234 161.312 81.4093 152.963C81.427 136.219 87.9972 120.165 99.6785 108.325C111.36 96.4847 127.198 89.8251 143.718 89.8072C156.911 89.7899 169.77 94.0117 180.448 101.866C191.127 109.72 199.074 120.803 203.149 133.522L203.535 134.737L203.282 134.832L203.402 135.21L203.602 135.075L204.094 136.924C205.451 142.185 206.101 147.607 206.026 153.044C206.101 161.395 204.464 169.67 201.217 177.345C200.905 178.19 200.905 179.12 201.217 179.964C201.353 180.361 201.57 180.724 201.855 181.029C202.14 181.334 202.486 181.574 202.869 181.733L203.122 181.841L203.322 182.044C203.627 182.115 203.941 182.142 204.254 182.125C204.873 182.179 205.492 182.026 206.016 181.689C206.541 181.353 206.942 180.851 207.158 180.261Z" fill="#C2D8E7"/>
<path d="M163.818 33.6039L165.696 32.1728L160.062 25.517C167.487 26.6768 174.354 30.2051 179.667 35.5898C184.979 40.9744 188.46 47.9352 189.604 55.4614L183.038 49.7506L181.626 51.6542L192.415 60.6861L200.859 48.8056L198.981 47.3745L194.293 53.5578C192.939 45.2282 189.044 37.5381 183.154 31.5688C177.265 25.5994 169.678 21.6511 161.46 20.2787L167.561 15.5265L166.149 13.6229L154.428 22.1823L163.751 33.5904L163.818 33.6039Z" fill="#C2D8E7"/>
</svg>
