<svg width="20" height="12" viewBox="0 0 20 12" fill="none" xmlns="http://www.w3.org/2000/svg">
<path d="M19.2271 10.0383C19.175 9.95099 18.8524 9.25011 17.3003 7.80955C15.6754 6.30109 15.8937 6.54603 17.8508 3.93775C19.0428 2.34926 19.5193 1.37919 19.3702 0.964483C19.2283 0.569178 18.3516 0.673461 18.3516 0.673461L15.4365 0.690437C15.4365 0.690437 15.2207 0.661335 15.0594 0.75713C14.903 0.851712 14.8024 1.06998 14.8024 1.06998C14.8024 1.06998 14.3404 2.29954 13.7244 3.3448C12.4257 5.5505 11.9055 5.66691 11.6933 5.52988C11.1998 5.21097 11.3234 4.24696 11.3234 3.56306C11.3234 1.42527 11.6472 0.534013 10.6917 0.303621C10.374 0.227228 10.1412 0.176299 9.32994 0.167811C8.28953 0.156898 7.40798 0.171449 6.90961 0.415179C6.57736 0.577666 6.3215 0.940231 6.47793 0.960845C6.67073 0.98631 7.10726 1.07847 7.33886 1.39374C7.63837 1.79996 7.62746 2.71425 7.62746 2.71425C7.62746 2.71425 7.79965 5.23037 7.22609 5.54322C6.832 5.75785 6.2924 5.32011 5.13438 3.31812C4.54142 2.29348 4.09276 1.15971 4.09276 1.15971C4.09276 1.15971 4.00667 0.948719 3.85267 0.835948C3.66593 0.698926 3.40401 0.655272 3.40401 0.655272L0.63203 0.672249C0.63203 0.672249 0.216112 0.684375 0.0633254 0.865051C-0.0724847 1.02633 0.0524121 1.35857 0.0524121 1.35857C0.0524121 1.35857 2.22295 6.43569 4.67966 8.99547C6.93386 11.3418 9.49242 11.1878 9.49242 11.1878H10.6517C10.6517 11.1878 11.0021 11.149 11.1803 10.9562C11.3453 10.7792 11.3392 10.4469 11.3392 10.4469C11.3392 10.4469 11.3162 8.89118 12.0389 8.662C12.7507 8.43646 13.6649 10.1656 14.6338 10.8313C15.3662 11.3346 15.9228 11.2242 15.9228 11.2242L18.5141 11.1878C18.5141 11.1878 19.8698 11.1042 19.2271 10.0383Z" fill="white"/>
</svg>
