<svg width="15" height="15" viewBox="0 0 15 15" fill="none" xmlns="http://www.w3.org/2000/svg">
<path d="M14.8294 10.7102C14.7094 10.4097 14.3686 10.2633 14.068 10.3833C13.7675 10.5033 13.6211 10.8441 13.7411 11.1446C13.8936 11.5268 13.8436 11.963 13.6073 12.3118C13.3709 12.6607 12.9923 12.8608 12.5687 12.8608H2.43365C1.97161 12.8608 1.5613 12.6198 1.33604 12.2159C1.11042 11.8113 1.12103 11.3346 1.3644 10.9405L6.43195 2.7358C6.66269 2.3622 7.06239 2.13917 7.5012 2.13917C7.94001 2.13917 8.33967 2.3622 8.57045 2.7358L12.3183 8.8039C12.4884 9.0792 12.8494 9.1646 13.1247 8.99447C13.3999 8.82446 13.4853 8.46344 13.3152 8.18813L9.56733 2.12004C9.12155 1.39828 8.34917 0.967377 7.50117 0.967377C6.65317 0.967377 5.88078 1.39831 5.435 2.12004L0.367453 10.3248C-0.102353 11.0855 -0.122802 12.0058 0.312697 12.7867C0.747844 13.5668 1.54071 14.0326 2.43365 14.0326H12.5687C13.3872 14.0326 14.1193 13.6449 14.5773 12.969C15.0319 12.2982 15.1261 11.4538 14.8294 10.7102Z" fill="#FF0000"/>
<path d="M7.50146 11.7184C7.82505 11.7184 8.08734 11.4561 8.08734 11.1325C8.08734 10.8089 7.82505 10.5466 7.50146 10.5466H7.50117C7.17758 10.5466 6.91544 10.8089 6.91544 11.1325C6.91544 11.4561 7.17788 11.7184 7.50146 11.7184Z" fill="#FF0000"/>
<path d="M8.08707 9.08187V4.77561C8.08707 4.45202 7.82478 4.18973 7.50119 4.18973C7.17761 4.18973 6.91531 4.45202 6.91531 4.77561V9.08187C6.91531 9.40545 7.17761 9.66775 7.50119 9.66775C7.82478 9.66775 8.08707 9.40545 8.08707 9.08187Z" fill="#FF0000"/>
</svg>
