<svg width="20" height="20" fill="none" xmlns="http://www.w3.org/2000/svg"><g clip-path="url(#clip0)" fill="#fff"><path d="M13.938 0H6.662A6.063 6.063 0 00.6 6.063v7.275A6.063 6.063 0 006.663 19.4h7.274A6.063 6.063 0 0020 13.338V6.063A6.063 6.063 0 0013.937 0zm4.243 13.338a4.248 4.248 0 01-4.244 4.243H6.663a4.248 4.248 0 01-4.244-4.243V6.063a4.248 4.248 0 014.244-4.244h7.274a4.248 4.248 0 014.244 4.244v7.275z"/><path d="M10.3 4.85a4.85 4.85 0 100 9.7 4.85 4.85 0 000-9.7zm0 7.881A3.035 3.035 0 017.269 9.7 3.035 3.035 0 0110.3 6.669a3.035 3.035 0 013.031 3.03 3.035 3.035 0 01-3.031 3.032zm5.214-7.598a.646.646 0 100-1.293.646.646 0 000 1.293z"/></g><defs><clipPath id="clip0"><path fill="#fff" transform="translate(.6)" d="M0 0h19.4v19.4H0z"/></clipPath></defs></svg>