<svg width="174" height="185" fill="none" xmlns="http://www.w3.org/2000/svg"><path d="M157.901 27.1C140.448 9.61 117.215 0 92.5 0 67.785 0 44.552 9.611 27.1 27.1 9.647 44.588 0 67.785 0 92.5c0 24.715 9.611 47.948 27.1 65.401C44.588 175.389 67.785 185 92.5 185c24.715 0 47.948-9.611 65.401-27.099C175.389 140.412 185 117.215 185 92.5c0-24.715-9.611-47.948-27.099-65.4zm-4.012 126.789c-16.403 16.405-38.192 25.438-61.389 25.438-23.197 0-44.985-9.033-61.39-25.438C14.706 137.486 5.673 115.697 5.673 92.5c0-23.197 9.033-44.985 25.437-61.39C47.515 14.706 69.303 5.673 92.5 5.673c23.197 0 44.986 9.033 61.389 25.437 16.405 16.405 25.438 38.193 25.438 61.39 0 23.197-9.033 44.986-25.438 61.389z" fill="#C2D8E7"/><path d="M95.501 90.224h-6.034v5.672H95.5v-5.672z" fill="#C2D8E7"/><path d="M139.47 45.925c-12.502-12.466-29.196-19.331-46.973-19.331-17.777 0-34.47 6.865-46.973 19.33C32.95 58.428 26.085 75.157 26.085 93.043v2.818h37.361v-2.818c0-6.974 2.457-13.55 6.865-18.753l14.417 14.417 4.011-4.01L74.395 70.35c5.13-4.082 11.454-6.286 18.138-6.286 7.769 0 15.068 2.998 20.523 8.418 5.457 5.457 8.528 12.755 8.528 20.56v2.818h37.361v-2.818c-.036-17.85-6.901-34.58-19.475-47.117zm-12.43 44.299a34.314 34.314 0 00-8.347-19.91l6.505-6.504-4.012-4.01-6.539 6.54a34.437 34.437 0 00-19.874-7.877v-9.395h-5.672v9.467c-6.938.65-13.406 3.36-18.753 7.768L58.316 54.271l-4.011 4.011 11.96 11.96a34.318 34.318 0 00-8.347 19.909h-26.16c.686-15.284 6.937-29.52 17.741-40.288 11.454-11.418 26.702-17.705 42.998-17.705 16.296 0 31.544 6.287 42.998 17.705 10.804 10.768 17.055 25.004 17.742 40.288H127.04v.073zm-80.755 13.911v34.579h92.428v-34.579H46.285zm86.755 28.906H51.958v-23.27h81.118l-.036 23.27zm-37.539 11.924h-6.034v5.673H95.5v-5.673zm11.345 0h-5.672v5.673h5.672v-5.673zm-23.016 0h-5.673v5.673h5.673v-5.673z" fill="#C2D8E7"/><path d="M66.083 124.188H60.41v6.035h5.673v-6.035zm11.711-8.671h-5.673v14.706h5.673v-14.706zm11.311 8.671h-5.672v6.035h5.672v-6.035zm11.708-8.671H95.14v14.706h5.673v-14.706zm11.306 8.671h-5.673v6.035h5.673v-6.035zm11.707-8.671h-5.673v14.706h5.673v-14.706z" fill="#C2D8E7"/></svg>