<svg width="175" height="185" fill="none" xmlns="http://www.w3.org/2000/svg"><path d="M67.664 30.189c1.485-.037 2.97.017 4.449.162a38.894 38.894 0 0115.165 5.106 39.437 39.437 0 0111.9 10.81c1.332 1.783 2.664 3.794 4.688 4.443.801.24 1.65.26 2.461.056a4.662 4.662 0 002.148-1.218 4.765 4.765 0 001.184-2.189 4.802 4.802 0 00-.079-2.495 8.527 8.527 0 00-1.585-2.7c-6.712-8.464-16.071-14.355-26.532-16.7a44.407 44.407 0 00-21.33.665 44.833 44.833 0 00-18.628 10.553C28.878 48.63 27.972 58.283 27.879 69.988a38.96 38.96 0 016.873-21.776c7.618-10.585 19.94-17.753 32.912-18.023zm10.091 38.26c-.293-.149-.586-.31-.892-.432l-.373-.149c-.386-.162-.76-.297-1.146-.432l-.32-.094a12.88 12.88 0 00-1.238-.324l-.506-.108c-.373-.068-.76-.135-1.132-.176h-.493a17.412 17.412 0 00-3.277 0h-.493c-.386 0-.759.108-1.145.176l-.506.108c-.386.08-.76.189-1.132.297l-.427.135c-.386.121-.772.27-1.145.432l-.386.148c-.293.135-.586.284-.88.432a17.582 17.582 0 00-6.781 6.115 17.903 17.903 0 00-2.848 8.736v.878a17.809 17.809 0 005.11 12.492 17.332 17.332 0 0012.325 5.18 17.33 17.33 0 0012.281-5.204 17.809 17.809 0 005.087-12.468v-.972a17.887 17.887 0 00-2.888-8.7 17.565 17.565 0 00-6.795-6.07zm-7.752 26.65a10.65 10.65 0 01-7.515-3.183 10.943 10.943 0 01-3.14-7.617 10.943 10.943 0 013.14-7.618 10.65 10.65 0 017.515-3.183 10.654 10.654 0 017.516 3.183 10.943 10.943 0 013.14 7.618 10.943 10.943 0 01-3.14 7.617 10.65 10.65 0 01-7.516 3.183z" fill="#C2D8E7"/><path d="M140.361 46.214L78.812 70.609l-.24-.188a6.88 6.88 0 01-1.598.458c-.84.135 1.079-.904 0-.837 4.076 4.577 5.328 11.26 5.874 17.551l.493-.324c.812-.54-1.332 1.04-.586.486l1.198-.864c.649-.495.795-.598.44-.31a9.91 9.91 0 011.332-.905v-.648l54.636-38.814z" fill="#C2D8E7"/><path d="M129.83 51.79l-.253.094.12.378.2-.135.492 1.85a60.66 60.66 0 011.918 15.364 7.641 7.641 0 016.66-1.067 62.79 62.79 0 00-2.517-17.173c-.333-1.174-.853-2.308-1.332-3.631-4.507-13.881-13.242-25.955-24.948-34.485C98.463 4.455 84.39-.091 69.972 0 51.673.023 34.13 7.401 21.19 20.516 8.251 33.631.972 51.414.951 69.962A69.289 69.289 0 006.48 96.963c.176.455.447.867.794 1.207.347.34.762.6 1.217.764a2.51 2.51 0 002.171-.23l.187-.094a3.372 3.372 0 001.683-1.886 3.431 3.431 0 00-.085-2.542A60.91 60.91 0 017.664 69.88c.018-16.745 6.588-32.798 18.27-44.639 11.68-11.84 27.519-18.5 44.038-18.517 13.194-.018 26.053 4.204 36.731 12.059 10.678 7.854 18.626 18.937 22.701 31.656l.426 1.35zm11.543 61.387c1.485-.037 2.97.017 4.449.162a38.893 38.893 0 0115.165 5.107 39.445 39.445 0 0111.9 10.81c1.332 1.782 2.664 3.794 4.688 4.442a4.621 4.621 0 004.609-1.161 4.77 4.77 0 001.184-2.189 4.805 4.805 0 00-.079-2.496 8.533 8.533 0 00-1.585-2.7c-6.719-8.448-16.077-14.325-26.532-16.66a44.415 44.415 0 00-21.33.666 44.83 44.83 0 00-18.628 10.553c-12.627 11.948-13.533 21.601-13.626 33.306a38.963 38.963 0 016.873-21.776c7.618-10.598 19.939-17.74 32.912-18.064zm10.092 38.314c-.293-.148-.586-.31-.892-.432l-.373-.148a19.522 19.522 0 00-1.146-.432l-.319-.095c-.48-.148-.853-.243-1.239-.324l-.506-.108a16.395 16.395 0 00-1.132-.175h-.493a17.415 17.415 0 00-3.277 0h-.493c-.386 0-.759.108-1.145.175l-.506.108c-.386.081-.759.189-1.132.297l-.426.135c-.387.122-.773.27-1.146.432l-.386.149a25.45 25.45 0 00-.879.432 17.576 17.576 0 00-6.782 6.115 17.899 17.899 0 00-2.848 8.736v.972a17.806 17.806 0 005.11 12.492A17.335 17.335 0 00143.78 185c4.62-.021 9.044-1.9 12.3-5.223a17.809 17.809 0 005.068-12.503v-.972a17.884 17.884 0 00-2.878-8.724 17.58 17.58 0 00-6.805-6.087zm-7.752 26.651a10.654 10.654 0 01-7.515-3.183 10.94 10.94 0 01-3.14-7.618 10.936 10.936 0 013.14-7.617 10.646 10.646 0 017.515-3.183 10.648 10.648 0 017.516 3.183 10.945 10.945 0 013.14 7.617 10.949 10.949 0 01-3.14 7.618 10.656 10.656 0 01-7.516 3.183z" fill="#C2D8E7"/><path d="M214.085 129.243l-61.549 24.396-.24-.189a6.905 6.905 0 01-1.598.459c-.839.135 1.079-.905 0-.837 4.075 4.577 5.327 11.259 5.874 17.551l.492-.324c.813-.54-1.332 1.039-.586.486l1.199-.864c.648-.495.795-.599.44-.311.419-.337.864-.64 1.331-.904v-.648l54.637-38.815z" fill="#C2D8E7"/><path d="M207.158 180.261v-.202a69.273 69.273 0 005.527-27.001 64.263 64.263 0 00-2.53-18.901c-.333-1.175-.853-2.309-1.332-3.632-4.507-13.881-13.242-25.955-24.948-34.485-11.706-8.53-25.781-13.076-40.197-12.983-18.297.032-35.834 7.418-48.766 20.538-12.932 13.12-20.202 30.903-20.216 49.449a69.286 69.286 0 005.528 27.001c.176.456.447.868.794 1.208.347.34.762.6 1.217.764a2.514 2.514 0 002.171-.23l.187-.094a3.375 3.375 0 001.683-1.887 3.431 3.431 0 00-.085-2.542 60.905 60.905 0 01-4.782-24.301c.018-16.744 6.588-32.798 18.27-44.638 11.681-11.84 27.519-18.5 44.039-18.518 13.193-.017 26.052 4.205 36.73 12.059 10.679 7.854 18.626 18.937 22.701 31.656l.386 1.215-.253.095.12.378.2-.135.492 1.849a61.169 61.169 0 011.932 16.12 60.976 60.976 0 01-4.809 24.301 3.781 3.781 0 000 2.619c.136.397.353.76.638 1.065.285.305.631.545 1.014.704l.253.108.2.203c.305.071.619.098.932.081a2.805 2.805 0 001.762-.436 2.861 2.861 0 001.142-1.428zm-43.34-146.657l1.878-1.431-5.634-6.656a35.172 35.172 0 0119.605 10.073 35.994 35.994 0 019.937 19.871l-6.566-5.71-1.412 1.903 10.789 9.032 8.444-11.88-1.878-1.431-4.688 6.183c-1.354-8.33-5.249-16.02-11.139-21.99a39.662 39.662 0 00-21.694-11.29l6.101-4.751-1.412-1.904-11.721 8.56 9.323 11.407.067.014z" fill="#C2D8E7"/></svg>