<svg width="174" height="186" fill="none" xmlns="http://www.w3.org/2000/svg"><path d="M182.195 172.107l-.11-.091-37.673-37.854.965-1.28a77.774 77.774 0 0016.387-47.202c0-20.38-8.057-39.924-22.399-54.335C125.023 16.935 105.571 8.84 85.288 8.84S45.553 16.935 31.21 31.345C16.869 45.755 8.811 65.3 8.811 85.68c0 20.379 8.058 39.924 22.4 54.334 14.342 14.411 33.794 22.506 54.077 22.506a76.928 76.928 0 0046.978-16.466l1.275-.969 37.674 37.853a7.802 7.802 0 005.772 2.067 7.79 7.79 0 005.772-2.049 6.33 6.33 0 002.24-4.885 7.821 7.821 0 00-2.804-5.964zm-43.046-44.549l-12.363 12.404a66.515 66.515 0 01-40.843 13.905c-37.072-.659-67.226-30.956-67.226-67.547.043-17.9 7.14-35.053 19.74-47.708 12.598-12.655 29.672-19.782 47.486-19.82a67.21 67.21 0 0147.464 19.833c12.591 12.654 19.683 29.802 19.726 47.695a68.17 68.17 0 01-13.838 41.055l-.146.183zM4.479 27.061a3.63 3.63 0 002.558-.842 3.664 3.664 0 001.284-2.378v-16.1h16.023a3.637 3.637 0 002.367-1.29 3.67 3.67 0 00.838-2.57 3.67 3.67 0 00-.838-2.57A3.637 3.637 0 0024.345.02H5.116a4.125 4.125 0 00-2.64 1.206A4.162 4.162 0 001.274 3.88V23.2a3.014 3.014 0 00.562 2.802 2.987 2.987 0 002.643 1.058zM147.471 8.382h16.024v16.009c0 1.939.637 3.22 2.567 3.22 1.93 0 2.568-1.281 2.568-3.22V5.144c0-1.94-.638-3.86-2.568-3.86h-19.228a3.638 3.638 0 00-2.367 1.29 3.669 3.669 0 00-.838 2.57c.583 1.299 1.912 3.238 3.842 3.238zM23.726 164.917H7.648v-16.118a3.663 3.663 0 00-1.284-2.378 3.629 3.629 0 00-2.558-.842 3.627 3.627 0 00-2.536.855A3.664 3.664 0 000 148.799v19.356c0 1.94 1.93 2.58 3.842 2.58H23.07c1.93 0 3.205-.64 3.205-2.58 0-1.939-.637-3.238-2.55-3.238z" fill="#C2D8E7"/><path d="M83.615 59.645a28.072 28.072 0 013.405.128 29.963 29.963 0 0111.642 3.872 30.111 30.111 0 019.134 8.221 8.046 8.046 0 003.642 3.385 3.624 3.624 0 003.532-.878 3.68 3.68 0 00.856-3.55 6.456 6.456 0 00-1.22-2.012 36.067 36.067 0 00-20.34-12.697 34.311 34.311 0 00-16.398.482 34.426 34.426 0 00-14.32 8.044c-9.668 9.147-10.36 16.466-10.433 25.284a29.369 29.369 0 015.262-16.466 33.009 33.009 0 0111.042-9.816 32.84 32.84 0 0114.196-3.997zm7.793 29.09l-.692-.33-.291-.109-.875-.33h-.254l-.947-.255h-.383l-.874-.129h-.382a13.435 13.435 0 00-2.513 0h-.382l-.874.129h-.383l-.856.22-.327.09-.874.33-.292.11-.673.329a13.422 13.422 0 00-5.189 4.632 13.51 13.51 0 00-2.186 6.62v.75a13.461 13.461 0 003.915 9.477 13.333 13.333 0 009.432 3.933 13.334 13.334 0 009.346-4.01 13.462 13.462 0 003.837-9.455v-.732a13.51 13.51 0 00-2.142-6.613 13.424 13.424 0 00-5.141-4.657zm-5.936 20.235a8.194 8.194 0 01-5.807-2.417 8.27 8.27 0 01-2.405-5.834c0-2.189.865-4.287 2.405-5.835a8.192 8.192 0 015.807-2.417 8.19 8.19 0 015.806 2.417 8.287 8.287 0 01-.026 11.695 8.197 8.197 0 01-5.854 2.391h.074z" fill="#C2D8E7"/><path d="M139.295 71.848l-47.16 18.534-.182-.147a5.347 5.347 0 01-1.22.348c-.637.11.82-.677 0-.622 3.114 3.476 4.042 8.544 4.497 13.282l.383-.256c.619-.421-1.056.787-.455.366l.928-.659.328-.237a7.534 7.534 0 011.056-.677v-.549l41.825-29.383z" fill="#C2D8E7"/><path d="M133.998 110.598v-.146a52.222 52.222 0 004.224-20.546 48.403 48.403 0 00-1.893-14.288c-.255-.897-.656-1.83-1.02-2.763a52.42 52.42 0 00-19.114-26.187 52.018 52.018 0 00-30.796-9.855A52.806 52.806 0 0048.097 52.39a53.312 53.312 0 00-15.503 37.48 52.228 52.228 0 004.188 20.509 2.599 2.599 0 001.548 1.5 1.943 1.943 0 001.657-.183h.145a2.576 2.576 0 001.287-1.436 2.59 2.59 0 00-.067-1.93 45.93 45.93 0 01-3.642-18.424 48.123 48.123 0 0113.975-33.89A47.665 47.665 0 0185.4 41.936a47.644 47.644 0 0128.137 9.162 48.012 48.012 0 0117.385 24.044l.291.915h-.2l.091.292.145-.11.383 1.41a46.143 46.143 0 011.475 12.184 45.944 45.944 0 01-3.642 18.46 2.851 2.851 0 000 1.994 2.257 2.257 0 001.256 1.336h.201l.145.146c.236.033.475.033.71 0a2.177 2.177 0 002.222-1.171z" fill="#C2D8E7"/></svg>