<svg width="20" height="12" fill="none" xmlns="http://www.w3.org/2000/svg"><path d="M19.227 10.038c-.052-.087-.375-.788-1.927-2.228-1.625-1.509-1.406-1.264.55-3.872 1.193-1.589 1.67-2.559 1.52-2.974-.142-.395-1.018-.29-1.018-.29L15.437.69s-.216-.029-.378.067c-.156.095-.257.313-.257.313s-.462 1.23-1.078 2.275c-1.298 2.206-1.819 2.322-2.03 2.185-.494-.319-.37-1.283-.37-1.967 0-2.138.323-3.029-.632-3.26-.318-.076-.55-.127-1.362-.135C8.29.157 7.408.17 6.91.415c-.333.163-.588.525-.432.546.193.025.63.117.86.433.3.406.29 1.32.29 1.32s.172 2.516-.402 2.83c-.394.214-.934-.224-2.092-2.226A18.662 18.662 0 014.093 1.16s-.086-.211-.24-.324c-.187-.137-.449-.18-.449-.18L.632.671S.216.684.063.865c-.135.161-.01.494-.01.494s2.17 5.077 4.627 7.636c2.254 2.347 4.812 2.193 4.812 2.193h1.16s.35-.039.528-.232c.165-.177.16-.51.16-.51s-.024-1.555.699-1.784c.712-.226 1.626 1.504 2.595 2.17.732.503 1.289.392 1.289.392l2.591-.036s1.356-.084.713-1.15z" fill="#fff"/></svg>