<svg width="15" height="15" fill="none" xmlns="http://www.w3.org/2000/svg"><path d="M14.83 10.71a.586.586 0 00-1.089.435c.153.382.103.818-.134 1.167a1.236 1.236 0 01-1.038.549H2.434c-.462 0-.873-.241-1.098-.645a1.244 1.244 0 01.028-1.275l5.068-8.205c.23-.374.63-.597 1.07-.597.438 0 .838.223 1.068.597l3.748 6.068a.586.586 0 10.997-.616L9.567 2.12A2.413 2.413 0 007.501.967c-.848 0-1.62.431-2.066 1.153L.367 10.325a2.4 2.4 0 00-.054 2.462 2.4 2.4 0 002.12 1.246H12.57c.818 0 1.55-.388 2.008-1.064.455-.67.55-1.515.252-2.259z" fill="red"/><path d="M7.501 11.718a.586.586 0 100-1.171.586.586 0 100 1.171zm.586-2.636V4.776a.586.586 0 10-1.172 0v4.306a.586.586 0 101.172 0z" fill="red"/></svg>