<svg width="221" height="55" viewBox="0 0 221 55" fill="none" xmlns="http://www.w3.org/2000/svg">
<path d="M18.5636 4.64411C17.3242 8.41203 17.1091 12.4196 17.9388 16.2889C18.7685 20.1583 20.6155 23.7619 23.3057 26.7602C23.7299 27.2262 24.0786 27.592 24.3322 27.8344L24.7393 28.2352C24.7393 28.2352 24.9319 28.4123 25.2586 28.7502C25.5853 29.088 26.0534 29.5844 26.5923 30.2205C29.69 33.8887 31.6962 38.287 32.3998 42.9528C32.7282 45.1138 32.7749 47.3054 32.5387 49.4774C32.4158 50.6309 32.2121 51.7753 31.9292 52.9028C31.8122 53.3688 31.7049 53.7347 31.6098 54.0516C32.26 53.7223 32.8971 53.3642 33.5213 52.9774C33.7651 52.4438 34.0235 51.9148 34.2527 51.3835C35.073 49.5804 35.7973 47.7387 36.4226 45.8656C36.9115 44.3658 37.2382 42.8221 37.3978 41.2587C37.6 39.3502 37.5575 37.4251 37.2711 35.5264C36.6551 31.4311 34.9014 27.5686 32.1925 24.3414C31.7171 23.7798 31.3124 23.3394 31.0223 23.0458C30.7321 22.7522 30.5883 22.6031 30.5883 22.6031L30.1689 22.1929C29.8812 21.9156 29.4814 21.4939 28.9986 20.9742C24.6185 16.1199 22.2415 9.90513 22.3134 3.49532C22.3134 2.89645 22.3476 2.33021 22.389 1.80591L20.7799 0L19.9582 0.932085C19.5047 2.02961 19.0171 3.22734 18.5636 4.64411Z" fill="#002653"/>
<path d="M39.5213 21.0605V21.0465C39.1166 20.5408 31.2074 11.6511 25.7827 5.59253C25.8843 6.80553 26.084 8.00919 26.38 9.19271C26.8791 11.1753 27.6497 13.0862 28.6718 14.8761C29.4864 16.3005 30.453 17.6405 31.5561 18.8747C31.9803 19.3408 32.3314 19.7043 32.585 19.9466L32.9921 20.3474C32.9921 20.3474 33.1847 20.5245 33.509 20.8647C33.8333 21.205 34.3038 21.6966 34.8451 22.3328C39.4085 27.7529 41.5459 34.677 40.7915 41.5966C40.6677 42.751 40.4633 43.8961 40.1796 45.0244C39.9699 45.8516 39.7919 46.4225 39.6505 46.8396C39.5237 47.2124 39.3872 47.5643 39.2482 47.9092C42.3463 44.0728 44.0494 39.3746 44.0987 34.5286C44.148 29.6826 42.5408 24.9537 39.5213 21.0605Z" fill="#002653"/>
<path d="M29.9884 47.9488C30.1788 46.1434 30.1387 44.3225 29.8689 42.5264C29.2833 38.6573 27.6249 35.0086 25.0659 31.9589C24.6173 31.4276 24.2345 31.0128 23.959 30.7332C23.6835 30.4536 23.5202 30.2928 23.5202 30.2928L23.1252 29.906C22.8521 29.645 22.4742 29.2535 22.0183 28.7548C19.3074 25.7586 17.3848 22.1866 16.4107 18.3364C15.5741 14.9943 15.4654 11.5234 16.0913 8.13943C14.9625 9.40241 13.7654 10.7469 12.5805 12.0752C12.4366 12.4713 12.2928 12.8814 12.1489 13.3195C11.9016 14.0854 11.6965 14.8632 11.5345 15.6497C10.8922 18.7738 10.9621 21.9935 11.7393 25.0894C12.59 28.4665 14.2679 31.602 16.635 34.2378C17.0349 34.6759 17.3664 35.0231 17.6102 35.2515L17.9955 35.6313C17.9955 35.6313 18.1783 35.7991 18.4831 36.1206C18.7878 36.4422 19.234 36.9059 19.746 37.5188C21.0656 39.0877 22.183 40.8026 23.074 42.6266C24.1433 44.8247 24.8718 47.1601 25.2366 49.559C25.4954 51.2802 25.5681 53.0222 25.4536 54.7577C26.456 54.6092 27.4465 54.3951 28.4183 54.1169C28.6304 53.5529 28.8401 52.9518 29.0522 52.3179C29.519 50.8958 29.8327 49.4318 29.9884 47.9488Z" fill="#002653"/>
<path d="M12.3661 51.3602C11.5856 49.7585 10.6075 48.2518 9.45258 46.8722C9.00397 46.3433 8.62119 45.9262 8.34569 45.6489C8.07018 45.3716 7.91659 45.2178 7.91659 45.2178L7.51918 44.831C7.24855 44.57 6.86821 44.1785 6.41229 43.6798C3.70819 40.6809 1.79016 37.1096 0.816888 33.2615C0.587213 32.3466 0.412201 31.42 0.292701 30.4862C-0.50129 35.0996 0.330802 39.8345 2.65825 43.9468C4.9857 48.0592 8.67662 51.3161 13.1511 53.2058C12.922 52.5696 12.6538 51.9498 12.3661 51.3602Z" fill="#002653"/>
<path d="M22.0575 49.9854C21.7382 47.8808 21.1018 45.8315 20.168 43.9012C19.3847 42.2991 18.4024 40.7931 17.2423 39.4155C16.7937 38.8866 16.4109 38.4695 16.1354 38.1922C15.8599 37.9149 15.7063 37.7611 15.7063 37.7611L15.3089 37.3719C15.0383 37.1133 14.6579 36.7218 14.202 36.2231C13.0141 34.8969 11.9739 33.4561 11.0983 31.9239C8.95103 28.1741 7.84709 23.9601 7.89225 19.6856C7.90444 18.7535 7.9654 17.9147 8.05317 17.1573C5.99299 19.4736 4.49844 21.1676 4.33753 21.375L4.06203 21.7409C3.95719 22.1254 3.84747 22.5704 3.7402 23.0901C3.05947 26.3551 3.16471 29.7253 4.04794 32.9456C4.93117 36.166 6.56925 39.1522 8.83823 41.6782C9.24051 42.1186 9.56965 42.4634 9.81346 42.6941L10.1987 43.0716C10.1987 43.0716 10.3791 43.2417 10.6863 43.561C10.9935 43.8802 11.4372 44.3486 11.9468 44.9591C13.2678 46.5284 14.386 48.2441 15.2772 50.0693C15.9569 51.465 16.4989 52.9184 16.8961 54.4104C18.5842 54.7975 20.3142 54.993 22.0502 54.993H22.2184C22.3614 53.3233 22.3074 51.6435 22.0575 49.9854Z" fill="#002653"/>
<path d="M61.7252 41.2913H60.845L59.2456 39.3806L58.5142 40.0796V41.289H57.8242V37.0504H58.5142V39.3013L60.8426 37.0504H61.713L59.7625 38.9705L61.7252 41.2913Z" fill="#222222"/>
<path d="M66.0724 40.7554C65.8652 40.9581 65.6178 41.1192 65.3446 41.2292C65.0714 41.3392 64.778 41.3958 64.4815 41.3958C64.1851 41.3958 63.8916 41.3392 63.6184 41.2292C63.3452 41.1192 63.0978 40.9581 62.8907 40.7554C62.5032 40.3104 62.291 39.7498 62.291 39.1709C62.291 38.5919 62.5032 38.0313 62.8907 37.5863C63.099 37.3856 63.3468 37.2263 63.6198 37.1176C63.8929 37.0088 64.1857 36.9529 64.4815 36.9529C64.7773 36.9529 65.0702 37.0088 65.3432 37.1176C65.6163 37.2263 65.8641 37.3856 66.0724 37.5863C66.4612 38.0307 66.6742 38.5916 66.6742 39.1709C66.6742 39.7502 66.4612 40.311 66.0724 40.7554ZM63.3905 40.3313C63.5225 40.4809 63.6872 40.6011 63.8729 40.6836C64.0586 40.7661 64.2609 40.8088 64.4657 40.8088C64.6704 40.8088 64.8727 40.7661 65.0585 40.6836C65.2442 40.6011 65.4088 40.4809 65.5409 40.3313C65.8094 39.9982 65.949 39.5865 65.9358 39.1662C65.9512 38.7456 65.8114 38.3332 65.5409 38.0011C65.4083 37.8522 65.2435 37.7326 65.0579 37.6506C64.8723 37.5686 64.6702 37.5261 64.4657 37.5261C64.2611 37.5261 64.0591 37.5686 63.8734 37.6506C63.6878 37.7326 63.523 37.8522 63.3905 38.0011C63.1207 38.3284 62.9792 38.7357 62.9906 39.1522C62.9744 39.578 63.116 39.9956 63.3905 40.3313Z" fill="#222222"/>
<path d="M72.3088 41.2913H71.6212V37.9685L70.1828 41.2913H69.9243L68.4761 37.9685V41.2913H67.7788V37.0504H68.6858L70.0438 40.1868L71.3921 37.0504H72.3088V41.2913Z" fill="#222222"/>
<path d="M78.2067 41.2913H77.5314V37.9685L76.0685 41.2913H75.8247L74.3765 37.9685V41.2913H73.689V37.0504H74.6057L75.9637 40.1868L77.2876 37.0504H78.2043L78.2067 41.2913Z" fill="#222222"/>
<path d="M79.3354 42.9481L79.4451 42.3516C79.5637 42.4 79.6916 42.4238 79.8206 42.4215C79.959 42.426 80.096 42.3929 80.2155 42.326C80.3391 42.2368 80.4317 42.1142 80.4813 41.9741L80.7738 41.3356L78.9233 37.0504H79.6548L81.1322 40.52L82.5951 37.0504H83.346L81.1274 42.1419C81.0338 42.3987 80.8573 42.6204 80.6233 42.7749C80.3892 42.9295 80.1098 43.0089 79.8254 43.0017C79.6603 43.0041 79.4956 42.9861 79.3354 42.9481Z" fill="#222222"/>
<path d="M84.7652 41.2913H84.0776V37.0504H84.7652V38.812H87.0765V37.0504H87.7713V41.2913H87.0838V39.3969H84.7725L84.7652 41.2913Z" fill="#222222"/>
<path d="M92.5962 41.2914H91.916V40.809C91.7313 41.0024 91.5048 41.1551 91.2522 41.2565C90.9996 41.3579 90.727 41.4056 90.4532 41.3962C90.057 41.401 89.6727 41.2667 89.3731 41.0187C89.2184 40.8933 89.0957 40.7357 89.0146 40.558C88.9334 40.3803 88.896 40.1872 88.905 39.9934C88.8933 39.7992 88.9291 39.605 89.0095 39.4262C89.0899 39.2475 89.2127 39.089 89.3682 38.9635C89.6728 38.7223 90.0577 38.5934 90.4532 38.6C90.7267 38.5859 91 38.6305 91.2531 38.7305C91.5062 38.8305 91.7327 38.9834 91.916 39.1779V38.4159C91.923 38.2905 91.8982 38.1653 91.8439 38.0509C91.7896 37.9365 91.7073 37.8363 91.6039 37.7588C91.3713 37.5942 91.0861 37.5118 90.7969 37.5257C90.5403 37.5257 90.2865 37.5781 90.0528 37.6793C89.819 37.7806 89.6105 37.9284 89.4414 38.113L89.1196 37.6586C89.3467 37.4298 89.6217 37.2493 89.9267 37.1289C90.2317 37.0085 90.5597 36.9507 90.8896 36.9595C91.3317 36.9406 91.7677 37.0636 92.1281 37.309C92.2939 37.4384 92.4247 37.6039 92.5095 37.7917C92.5944 37.9794 92.6308 38.1839 92.6157 38.3879L92.5962 41.2914ZM90.697 40.9232C90.93 40.9395 91.1636 40.8998 91.3765 40.8078C91.5894 40.7159 91.7748 40.5745 91.916 40.3966V39.5996C91.7753 39.4212 91.5899 39.2795 91.3769 39.1875C91.1639 39.0955 90.9301 39.0561 90.697 39.073C90.4107 39.0624 90.1306 39.1547 89.9119 39.3317C89.8118 39.4147 89.7322 39.518 89.6791 39.6341C89.626 39.7502 89.6006 39.8761 89.6047 40.0028C89.6013 40.128 89.6271 40.2523 89.6803 40.3668C89.7334 40.4812 89.8125 40.583 89.9119 40.6645C90.1306 40.8415 90.4107 40.9338 90.697 40.9232Z" fill="#222222"/>
<path d="M93.4492 41.3962V40.8533C93.6565 40.8533 93.8296 40.7205 93.9637 40.4572C94.1396 40.0367 94.2505 39.5939 94.2928 39.1429L94.5781 37.0574H97.6598V41.2914H96.9723V37.6353H95.1827L94.9803 39.2221C94.8828 39.9989 94.7121 40.5558 94.4683 40.8929C94.3575 41.0529 94.2056 41.1831 94.0272 41.2712C93.8489 41.3593 93.6499 41.4023 93.4492 41.3962Z" fill="#222222"/>
<path d="M99.0352 37.0504H99.7178V38.6815H101.378C101.563 38.6709 101.749 38.6966 101.923 38.757C102.098 38.8175 102.257 38.9113 102.392 39.0329C102.527 39.1545 102.635 39.3011 102.709 39.4639C102.782 39.6267 102.82 39.8021 102.82 39.9794C102.82 40.1567 102.782 40.3322 102.709 40.4949C102.635 40.6577 102.527 40.8044 102.392 40.926C102.257 41.0475 102.098 41.1414 101.923 41.2018C101.749 41.2623 101.563 41.288 101.378 41.2774H99.0352V37.0504ZM101.31 39.2664H99.7178V40.7041H101.305C101.408 40.7105 101.511 40.6964 101.608 40.6627C101.705 40.629 101.794 40.5765 101.868 40.5084C101.996 40.3618 102.066 40.1772 102.066 39.9864C102.066 39.7957 101.996 39.611 101.868 39.4645C101.794 39.3978 101.706 39.3465 101.61 39.3136C101.514 39.2808 101.412 39.2671 101.31 39.2734V39.2664Z" fill="#222222"/>
<path d="M104.511 41.2913H103.824V37.0504H104.511V38.812H106.823V37.0504H107.52V41.2913H106.832V39.3969H104.521L104.511 41.2913Z" fill="#222222"/>
<path d="M112.413 40.7554C112.205 40.9582 111.958 41.1193 111.684 41.2293C111.411 41.3393 111.117 41.396 110.821 41.396C110.524 41.396 110.23 41.3393 109.957 41.2293C109.684 41.1193 109.436 40.9582 109.229 40.7554C108.841 40.3104 108.629 39.7498 108.629 39.1709C108.629 38.5919 108.841 38.0313 109.229 37.5863C109.437 37.3855 109.685 37.2262 109.958 37.1174C110.232 37.0087 110.525 36.9527 110.821 36.9527C111.117 36.9527 111.41 37.0087 111.683 37.1174C111.956 37.2262 112.204 37.3855 112.413 37.5863C112.8 38.0313 113.012 38.5919 113.012 39.1709C113.012 39.7498 112.8 40.3104 112.413 40.7554ZM109.743 40.3313C109.875 40.4809 110.04 40.6011 110.225 40.6836C110.411 40.7661 110.613 40.8088 110.818 40.8088C111.023 40.8088 111.225 40.7661 111.411 40.6836C111.597 40.6011 111.761 40.4809 111.893 40.3313C112.162 39.9982 112.301 39.5865 112.288 39.1662C112.304 38.7456 112.164 38.3332 111.893 38.0011C111.761 37.8522 111.596 37.7326 111.41 37.6506C111.225 37.5686 111.023 37.5262 110.818 37.5262C110.614 37.5262 110.412 37.5686 110.226 37.6506C110.04 37.7326 109.876 37.8522 109.743 38.0011C109.473 38.3284 109.332 38.7357 109.343 39.1522C109.327 39.578 109.469 39.9956 109.743 40.3313Z" fill="#222222"/>
<path d="M116.131 41.3962C115.83 41.4059 115.531 41.3561 115.251 41.2498C114.972 41.1436 114.718 40.9832 114.507 40.7787C114.294 40.5645 114.129 40.3115 114.02 40.0349C113.912 39.7583 113.863 39.4637 113.876 39.1685C113.861 38.5869 114.084 38.0227 114.497 37.5956C114.694 37.3876 114.935 37.2224 115.204 37.1115C115.473 37.0005 115.764 36.9463 116.058 36.9525C116.351 36.941 116.643 36.9928 116.912 37.1042C117.182 37.2155 117.421 37.3835 117.613 37.5956C118.006 38.0544 118.21 38.6345 118.186 39.2268V39.3806H114.59C114.608 39.7728 114.777 40.1446 115.065 40.4245C115.211 40.5648 115.386 40.6746 115.579 40.7472C115.771 40.8198 115.978 40.8535 116.184 40.8463C116.439 40.8532 116.692 40.809 116.928 40.7167C117.163 40.6244 117.376 40.486 117.552 40.3104L117.881 40.7391C117.652 40.9568 117.378 41.1274 117.077 41.2404C116.776 41.3534 116.454 41.4064 116.131 41.3962ZM117.516 38.9146C117.511 38.5559 117.375 38.2102 117.13 37.9382C116.998 37.792 116.833 37.6769 116.647 37.6017C116.461 37.5265 116.259 37.4934 116.058 37.5048C115.861 37.4959 115.666 37.5299 115.485 37.6042C115.305 37.6785 115.145 37.7911 115.017 37.9335C114.761 38.2042 114.61 38.5505 114.59 38.9146H117.516Z" fill="#222222"/>
<path d="M125.33 41.2913H124.532L123.201 39.5553L121.872 41.2913H121.083L122.789 39.1173L121.173 37.0504H121.97L123.189 38.6629L124.408 37.0504H125.208L123.601 39.1103L125.33 41.2913Z" fill="#222222"/>
<path d="M129.645 40.7554C129.438 40.9563 129.192 41.1159 128.92 41.2249C128.648 41.3338 128.356 41.3899 128.061 41.3899C127.766 41.3899 127.474 41.3338 127.202 41.2249C126.929 41.1159 126.683 40.9563 126.476 40.7554C126.087 40.311 125.874 39.7502 125.874 39.1709C125.874 38.5916 126.087 38.0307 126.476 37.5863C126.684 37.3874 126.931 37.2295 127.203 37.1218C127.475 37.0141 127.766 36.9587 128.061 36.9587C128.355 36.9587 128.646 37.0141 128.918 37.1218C129.19 37.2295 129.437 37.3874 129.645 37.5863C130.033 38.0313 130.245 38.5919 130.245 39.1709C130.245 39.7498 130.033 40.3104 129.645 40.7554ZM126.963 40.3313C127.092 40.4842 127.257 40.6061 127.444 40.687C127.631 40.768 127.836 40.8058 128.041 40.7974C128.246 40.8063 128.45 40.7688 128.636 40.6877C128.823 40.6067 128.986 40.4846 129.114 40.3313C129.382 39.9982 129.522 39.5865 129.509 39.1662C129.524 38.7456 129.384 38.3332 129.114 38.0011C128.987 37.8476 128.823 37.7252 128.636 37.6441C128.45 37.5631 128.246 37.5257 128.041 37.5351C127.835 37.5277 127.63 37.5671 127.442 37.6501C127.255 37.7331 127.091 37.8574 126.963 38.0128C126.694 38.3403 126.554 38.7476 126.566 39.1639C126.555 39.5869 126.7 40 126.976 40.3313H126.963Z" fill="#222222"/>
<path d="M132.934 41.3962C132.083 41.3962 131.416 41.1632 130.935 40.6972L131.274 40.2754C131.498 40.4704 131.76 40.6212 132.045 40.7191C132.329 40.8171 132.632 40.8603 132.934 40.8463C133.264 40.8615 133.591 40.7914 133.883 40.6436C133.987 40.5941 134.075 40.5181 134.138 40.424C134.2 40.33 134.234 40.2213 134.236 40.1099C134.236 39.6439 133.771 39.4109 132.842 39.4109H131.852V38.8749H132.842C133.167 38.8877 133.49 38.8262 133.785 38.6955C133.895 38.6522 133.989 38.5785 134.054 38.4838C134.12 38.3891 134.155 38.2778 134.153 38.1642C134.147 38.0581 134.109 37.956 134.044 37.87C133.979 37.7841 133.889 37.7179 133.785 37.6795C133.497 37.5448 133.179 37.48 132.859 37.4908C132.585 37.4791 132.313 37.5213 132.057 37.6147C131.802 37.7081 131.569 37.8508 131.374 38.0337L131.016 37.6306C131.253 37.4039 131.537 37.2268 131.849 37.1105C132.162 36.9942 132.497 36.9412 132.832 36.9548C133.338 36.9313 133.842 37.0324 134.295 37.2484C134.462 37.323 134.604 37.4414 134.704 37.5899C134.803 37.7384 134.857 37.9109 134.858 38.0873C134.86 38.2238 134.827 38.3586 134.762 38.4803C134.698 38.6021 134.604 38.7071 134.487 38.7864C134.249 38.9637 133.965 39.0757 133.666 39.1103C133.98 39.1359 134.283 39.2387 134.543 39.4085C134.672 39.4871 134.777 39.5963 134.849 39.7253C134.92 39.8544 134.955 39.999 134.951 40.1449C134.949 40.326 134.898 40.5035 134.802 40.6597C134.706 40.8159 134.569 40.9453 134.404 41.035C133.962 41.29 133.451 41.4155 132.934 41.3962Z" fill="#222222"/>
<path d="M136.74 41.2914H135.933L137.116 39.6253C136.799 39.5935 136.506 39.4497 136.294 39.2221C136.082 38.9636 135.971 38.6418 135.982 38.3132C135.993 37.9847 136.125 37.6704 136.355 37.4256C136.49 37.2996 136.651 37.2019 136.828 37.1385C137.004 37.0751 137.193 37.0475 137.381 37.0574H139.719V41.2914H139.032V39.6602H137.813L136.74 41.2914ZM137.454 39.073H139.032V37.6353H137.454C137.351 37.6296 137.248 37.6443 137.151 37.6784C137.054 37.7125 136.966 37.7652 136.891 37.8333C136.821 37.9018 136.767 37.9832 136.731 38.0726C136.696 38.162 136.68 38.2574 136.684 38.353C136.677 38.4507 136.692 38.5487 136.728 38.6403C136.765 38.7319 136.822 38.8148 136.895 38.8833C136.968 38.9518 137.056 39.0042 137.153 39.037C137.25 39.0697 137.352 39.082 137.454 39.073Z" fill="#222222"/>
<path d="M141.757 41.2914H141.097V37.0504H141.784V40.2847L144.105 37.0504H144.783V41.2914H144.091V37.9941L141.757 41.2914ZM144.544 35.8037C144.365 36.0494 144.124 36.2485 143.844 36.3832C143.564 36.5178 143.253 36.5837 142.94 36.575C142.625 36.582 142.314 36.5154 142.033 36.3809C141.751 36.2465 141.509 36.0483 141.326 35.8037L141.665 35.5218C141.805 35.7209 141.995 35.8831 142.218 35.9935C142.441 36.1038 142.689 36.1588 142.94 36.1532C143.19 36.16 143.437 36.1056 143.659 35.995C143.88 35.8845 144.068 35.7215 144.205 35.5218L144.544 35.8037Z" fill="#222222"/>
<path d="M148.111 41.3962C147.813 41.4062 147.516 41.3545 147.241 41.2447C146.966 41.135 146.719 40.9696 146.517 40.7601C146.12 40.3172 145.902 39.7536 145.902 39.1709C145.902 38.5881 146.12 38.0245 146.517 37.5816C146.72 37.374 146.967 37.2104 147.243 37.1018C147.518 36.9933 147.814 36.9424 148.111 36.9525C148.424 36.9418 148.734 37.0031 149.017 37.1313C149.3 37.2594 149.546 37.4507 149.735 37.6888L149.277 38.092C149.151 37.9173 148.983 37.7753 148.786 37.6788C148.588 37.5824 148.369 37.5346 148.148 37.5397C147.937 37.5329 147.728 37.5713 147.535 37.6519C147.342 37.7326 147.171 37.8535 147.034 38.0057C146.763 38.3436 146.616 38.7571 146.616 39.1825C146.616 39.6079 146.763 40.0214 147.034 40.3593C147.171 40.5121 147.342 40.6333 147.535 40.714C147.728 40.7947 147.937 40.8327 148.148 40.8253C148.369 40.8292 148.588 40.7808 148.785 40.6845C148.982 40.5881 149.151 40.4468 149.277 40.273L149.735 40.6762C149.544 40.9114 149.297 41.0995 149.015 41.2247C148.732 41.35 148.422 41.4088 148.111 41.3962Z" fill="#222222"/>
<path d="M152.193 41.2913H151.505V37.6352H150.223V37.0504H153.487V37.6282H152.193V41.2913Z" fill="#222222"/>
<path d="M156.871 41.2914H154.384V37.0504H156.822C157.155 37.032 157.483 37.139 157.734 37.3486C157.846 37.4492 157.934 37.5715 157.992 37.7074C158.05 37.8433 158.077 37.9896 158.071 38.1363C158.076 38.3584 158.003 38.5758 157.863 38.7538C157.737 38.9192 157.559 39.0411 157.354 39.101C157.586 39.1581 157.789 39.2918 157.927 39.4785C158.083 39.6652 158.169 39.8966 158.171 40.1356C158.178 40.2895 158.151 40.4432 158.091 40.5865C158.032 40.7298 157.942 40.8596 157.827 40.9675C157.698 41.0796 157.547 41.166 157.383 41.2216C157.219 41.2772 157.045 41.301 156.871 41.2914ZM156.705 38.8283C156.884 38.8376 157.059 38.779 157.193 38.6652C157.251 38.6097 157.296 38.5434 157.326 38.4704C157.356 38.3975 157.369 38.3194 157.366 38.2411C157.371 38.1599 157.358 38.0786 157.328 38.0024C157.298 37.9262 157.252 37.8568 157.193 37.7984C157.127 37.7416 157.05 37.6979 156.966 37.6699C156.883 37.6419 156.794 37.6301 156.705 37.6353H155.074V38.8283H156.705ZM156.732 40.7111C156.923 40.7235 157.111 40.6642 157.256 40.5457C157.321 40.4851 157.371 40.4124 157.404 40.3321C157.437 40.2519 157.453 40.1659 157.449 40.0797C157.451 39.9936 157.435 39.908 157.402 39.8279C157.369 39.7478 157.32 39.6749 157.256 39.6136C157.188 39.5481 157.106 39.4971 157.016 39.4638C156.925 39.4305 156.829 39.4156 156.732 39.4202H155.074V40.7251L156.732 40.7111Z" fill="#222222"/>
<path d="M162.994 40.7554C162.787 40.9563 162.54 41.1159 162.268 41.2249C161.996 41.3338 161.704 41.3899 161.409 41.3899C161.114 41.3899 160.822 41.3338 160.55 41.2249C160.278 41.1159 160.031 40.9563 159.824 40.7554C159.435 40.311 159.222 39.7502 159.222 39.1709C159.222 38.5916 159.435 38.0307 159.824 37.5863C160.032 37.3874 160.279 37.2295 160.551 37.1218C160.823 37.0141 161.114 36.9587 161.409 36.9587C161.703 36.9587 161.995 37.0141 162.266 37.1218C162.538 37.2295 162.785 37.3874 162.994 37.5863C163.381 38.0313 163.593 38.5919 163.593 39.1709C163.593 39.7498 163.381 40.3104 162.994 40.7554ZM160.324 40.3313C160.456 40.4809 160.621 40.6011 160.806 40.6836C160.992 40.7661 161.194 40.8088 161.399 40.8088C161.604 40.8088 161.806 40.7661 161.992 40.6836C162.178 40.6011 162.342 40.4809 162.474 40.3313C162.743 39.9982 162.882 39.5865 162.869 39.1662C162.885 38.7456 162.745 38.3332 162.474 38.0011C162.342 37.8522 162.177 37.7326 161.991 37.6506C161.806 37.5686 161.604 37.5262 161.399 37.5262C161.195 37.5262 160.992 37.5686 160.807 37.6506C160.621 37.7326 160.456 37.8522 160.324 38.0011C160.054 38.3284 159.913 38.7357 159.924 39.1522C159.908 39.578 160.049 39.9956 160.324 40.3313Z" fill="#222222"/>
<path d="M62.3858 32.2222H58.1094L62.0444 25.8654C60.9734 25.6295 60.0172 25.0547 59.3309 24.2342C58.5881 23.3814 58.2158 22.2698 58.2142 20.8997C58.2142 19.3105 58.7433 18.0149 59.8014 17.0129C60.8595 16.0109 62.2899 15.5091 64.0924 15.5076H72.2771V32.2315H68.5517V26.2895H65.8503L62.3858 32.2222ZM64.6434 23.146H68.5444V18.6417H64.6434C63.9554 18.6145 63.2815 18.8339 62.7539 19.2569C62.522 19.469 62.3374 19.7238 62.2113 20.0059C62.0851 20.2881 62.0201 20.5917 62.0201 20.8985C62.0201 21.2053 62.0851 21.509 62.2113 21.7911C62.3374 22.0732 62.522 22.328 62.7539 22.5401C63.2829 22.9598 63.9567 23.1758 64.6434 23.146Z" fill="#222222"/>
<path d="M81.5368 32.5228C79.4742 32.5228 77.8431 31.8757 76.6436 30.5817C75.444 29.2877 74.8459 27.6285 74.8491 25.6044C74.8491 22.7133 75.392 20.5486 76.4778 19.1101C77.5635 17.6715 79.2149 16.8101 81.432 16.5259C83.3385 16.2602 84.2918 15.9177 84.2918 15.4982H87.7539C87.7539 17.2537 85.9969 18.3411 82.4828 18.7605C79.8399 19.0961 78.3177 20.1058 77.9162 21.7898C78.9597 20.4678 80.4031 19.8068 82.2463 19.8068C83.0646 19.7867 83.8771 19.944 84.6228 20.2669C85.3685 20.5897 86.028 21.0697 86.5519 21.671C87.6633 22.9124 88.2562 24.5022 88.2171 26.1357C88.2596 27.8187 87.6041 29.4496 86.3935 30.6726C85.1858 31.906 83.5669 32.5228 81.5368 32.5228ZM79.1767 28.6616C79.4574 28.9988 79.8175 29.2678 80.2277 29.4468C80.6378 29.6258 81.0863 29.7097 81.5368 29.6916C81.9893 29.7089 82.4397 29.6248 82.852 29.4459C83.2644 29.2671 83.6272 28.9985 83.9115 28.6616C84.5136 27.9339 84.8255 27.0255 84.7916 26.0984C84.8142 25.2091 84.5018 24.3417 83.9115 23.654C83.6141 23.3355 83.2499 23.0804 82.8426 22.9053C82.4353 22.7302 81.994 22.639 81.5474 22.6377C81.1008 22.6364 80.6589 22.725 80.2504 22.8977C79.842 23.0703 79.4761 23.3233 79.1767 23.64C78.5897 24.334 78.2826 25.2063 78.3112 26.0984C78.276 27.0234 78.5824 27.9308 79.1767 28.6616Z" fill="#222222"/>
<path d="M89.6167 32.5228V29.9153C90.1433 29.9153 90.5635 29.6186 90.8772 29.0251C91.1909 28.4317 91.4444 27.4165 91.6379 25.9795L92.4522 20.1121H102.709V32.2292H99.3763V22.9083H95.3633L94.9439 26.3664C94.6806 28.4915 94.1255 30.0504 93.2787 31.0431C92.4319 32.0358 91.2112 32.529 89.6167 32.5228Z" fill="#222222"/>
<path d="M116.77 30.6819C115.546 31.9107 113.92 32.5243 111.893 32.5228C109.866 32.5212 108.241 31.9076 107.017 30.6819C105.805 29.4635 105.149 27.8349 105.193 26.1543C105.173 25.3232 105.324 24.4964 105.64 23.7216C105.956 22.9469 106.429 22.2396 107.032 21.6407C108.246 20.4228 109.871 19.813 111.908 19.8115C113.945 19.8099 115.57 20.4197 116.784 21.6407C117.388 22.2392 117.862 22.9464 118.177 23.7212C118.493 24.4961 118.644 25.3231 118.622 26.1543C118.642 26.9885 118.488 27.8181 118.17 28.5952C117.852 29.3722 117.376 30.0815 116.77 30.6819ZM109.528 28.6756C109.812 29.009 110.174 29.2745 110.584 29.4509C110.994 29.6272 111.442 29.7097 111.891 29.6916C112.342 29.7088 112.791 29.626 113.203 29.4498C113.615 29.2735 113.979 29.0085 114.266 28.6756C114.864 27.9623 115.175 27.0679 115.143 26.1543C115.172 25.2496 114.861 24.3649 114.266 23.661C113.979 23.328 113.615 23.0631 113.203 22.8868C112.791 22.7106 112.342 22.6278 111.891 22.645C111.442 22.6265 110.994 22.7088 110.584 22.8852C110.173 23.0616 109.812 23.3273 109.528 23.661C108.941 24.3683 108.634 25.2516 108.663 26.1543C108.632 27.066 108.938 27.9589 109.528 28.6756Z" fill="#222222"/>
<path d="M124.406 32.2222H121.073V20.1051H124.406V24.5931H129.652V20.1121H132.983V32.2292H129.652V27.3847H124.406V32.2222Z" fill="#222222"/>
<path d="M147.046 30.6819C145.82 31.9107 144.195 32.5243 142.17 32.5228C140.145 32.5212 138.519 31.9076 137.294 30.6819C136.082 29.4635 135.426 27.8349 135.47 26.1543C135.447 25.3242 135.597 24.4979 135.91 23.7232C136.223 22.9486 136.693 22.2408 137.294 21.6407C138.511 20.4228 140.137 19.813 142.17 19.8115C144.203 19.8099 145.829 20.4197 147.046 21.6407C147.65 22.2393 148.123 22.9466 148.438 23.7214C148.753 24.4963 148.904 25.3232 148.882 26.1543C148.903 26.9874 148.752 27.8163 148.437 28.5934C148.122 29.3704 147.649 30.0802 147.046 30.6819ZM139.805 28.6756C140.088 29.0091 140.449 29.2747 140.859 29.4511C141.269 29.6275 141.716 29.7098 142.165 29.6916C142.616 29.7088 143.065 29.626 143.477 29.4498C143.889 29.2735 144.253 29.0085 144.54 28.6756C145.138 27.9623 145.449 27.0679 145.417 26.1543C145.446 25.2496 145.135 24.3649 144.54 23.661C144.253 23.328 143.889 23.0631 143.477 22.8868C143.065 22.7106 142.616 22.6278 142.165 22.645C141.716 22.6262 141.268 22.7083 140.859 22.8847C140.449 23.0612 140.088 23.3271 139.805 23.661C139.216 24.3678 138.91 25.2514 138.939 26.1543C138.907 27.0661 139.214 27.9594 139.805 28.6756Z" fill="#222222"/>
<path d="M159.612 32.2222H151.347V20.1051H159.375C160.599 20.1051 161.552 20.4064 162.235 21.0092C162.562 21.2843 162.823 21.6238 162.999 22.0043C163.175 22.3849 163.263 22.7974 163.257 23.2136C163.279 23.8383 163.078 24.4517 162.687 24.953C162.296 25.4543 161.739 25.8138 161.106 25.9725C161.796 26.1166 162.409 26.4899 162.837 27.0258C163.289 27.5665 163.53 28.2402 163.52 28.9319C163.533 29.3725 163.448 29.8108 163.269 30.2171C163.09 30.6235 162.823 30.9885 162.484 31.2878C161.791 31.9123 160.834 32.2237 159.612 32.2222ZM158.693 24.7515C159.005 24.7635 159.311 24.66 159.546 24.4626C159.651 24.373 159.735 24.2626 159.791 24.1391C159.848 24.0156 159.876 23.8819 159.873 23.7472C159.877 23.6099 159.852 23.4732 159.797 23.3459C159.743 23.2187 159.662 23.1037 159.558 23.0085C159.321 22.8067 159.01 22.7028 158.693 22.7196H154.68V24.7515H158.693ZM158.797 29.6147C159.145 29.6324 159.487 29.5252 159.756 29.3141C159.875 29.2097 159.968 29.0814 160.029 28.9383C160.091 28.7953 160.118 28.6411 160.109 28.4868C160.112 28.337 160.083 28.1882 160.022 28.0501C159.961 27.9119 159.87 27.7876 159.756 27.6853C159.626 27.5733 159.475 27.4868 159.311 27.4309C159.146 27.3749 158.972 27.3505 158.797 27.359H154.68V29.6147H158.797Z" fill="#222222"/>
<path d="M172.616 32.5228C170.656 32.5228 169.047 31.9301 167.789 30.7448C166.531 29.5595 165.901 28.0293 165.899 26.1543C165.899 24.2994 166.529 22.7786 167.789 21.5917C169.049 20.4049 170.658 19.8099 172.616 19.8068C174.855 19.8068 176.525 20.5338 177.627 21.9879L175.449 23.9429C175.16 23.5213 174.76 23.1793 174.29 22.9508C173.819 22.7223 173.295 22.6153 172.767 22.6403C172.307 22.6242 171.848 22.7019 171.42 22.8682C170.993 23.0346 170.608 23.2857 170.29 23.605C169.652 24.2482 169.332 25.0964 169.332 26.1496C169.332 27.2029 169.652 28.0573 170.29 28.7129C170.606 29.0358 170.991 29.2903 171.418 29.4591C171.845 29.628 172.305 29.7072 172.767 29.6916C173.294 29.7088 173.816 29.5982 174.285 29.37C174.754 29.1417 175.155 28.8034 175.449 28.3866L177.627 30.3184C176.529 31.788 174.859 32.5228 172.616 32.5228Z" fill="#222222"/>
<path d="M192.194 32.2222H188.023L184.665 27.5618L183.144 29.116V32.2245H179.811V20.1074H183.144V25.4995L187.944 20.1074H192.036L187.025 25.6044L192.194 32.2222Z" fill="#222222"/>
<path d="M204.602 30.6819C203.378 31.9107 201.752 32.5243 199.726 32.5228C197.699 32.5212 196.073 31.9076 194.849 30.6819C193.638 29.4635 192.982 27.8349 193.026 26.1543C193.003 25.3242 193.152 24.4979 193.465 23.7232C193.778 22.9486 194.249 22.2408 194.849 21.6407C196.067 20.4228 197.692 19.813 199.726 19.8115C201.759 19.8099 203.384 20.4197 204.602 21.6407C205.206 22.2389 205.68 22.946 205.995 23.7209C206.311 24.4958 206.462 25.323 206.44 26.1543C206.462 26.9876 206.31 27.8167 205.995 28.5938C205.679 29.3709 205.206 30.0806 204.602 30.6819ZM197.363 28.6756C197.646 29.0091 198.007 29.2747 198.417 29.4511C198.827 29.6275 199.274 29.7098 199.723 29.6916C200.174 29.7088 200.623 29.626 201.035 29.4498C201.447 29.2735 201.811 29.0085 202.098 28.6756C202.696 27.9623 203.007 27.0679 202.976 26.1543C203.005 25.2496 202.693 24.3649 202.098 23.661C201.811 23.328 201.447 23.0631 201.035 22.8868C200.623 22.7106 200.174 22.6278 199.723 22.645C199.274 22.6262 198.827 22.7083 198.417 22.8847C198.007 23.0612 197.646 23.3271 197.363 23.661C196.775 24.3678 196.468 25.2514 196.498 26.1543C196.465 27.0661 196.772 27.9594 197.363 28.6756Z" fill="#222222"/>
<path d="M214.861 32.5228C212.901 32.5228 211.283 31.9379 210.007 30.7681C208.731 29.5983 208.093 28.0604 208.093 26.1543C208.071 25.3222 208.223 24.4943 208.54 23.7192C208.858 22.9441 209.334 22.2374 209.941 21.6407C211.175 20.4181 212.745 19.8068 214.651 19.8068C216.558 19.8068 218.088 20.4212 219.242 21.65C220.413 22.8788 220.998 24.4874 221 26.4759V27.1749H211.582C211.675 27.9561 212.078 28.6733 212.708 29.1789C213.415 29.7346 214.312 30.0209 215.227 29.9828C215.849 29.9716 216.466 29.8614 217.05 29.6566C217.634 29.4814 218.168 29.1809 218.611 28.7781L220.074 30.8357C218.801 31.9604 217.063 32.5228 214.861 32.5228ZM217.772 25.0265C217.719 24.3301 217.418 23.6722 216.919 23.1623C216.405 22.6093 215.649 22.3335 214.651 22.3351C213.705 22.3351 212.974 22.6069 212.457 23.1506C211.948 23.6608 211.626 24.3148 211.538 25.0148L217.772 25.0265Z" fill="#222222"/>
</svg>
